<?xml version="1.0" encoding="UTF-8"?>
<!-- Created with Inkscape (http://www.inkscape.org/) -->
<svg width="35.523mm" height="48.441mm" version="1.1" viewBox="0 0 35.523 48.441" xmlns="http://www.w3.org/2000/svg" xmlns:cc="http://creativecommons.org/ns#" xmlns:dc="http://purl.org/dc/elements/1.1/" xmlns:rdf="http://www.w3.org/1999/02/22-rdf-syntax-ns#">
 <metadata>
  <rdf:RDF>
   <cc:Work rdf:about="">
    <dc:format>image/svg+xml</dc:format>
    <dc:type rdf:resource="http://purl.org/dc/dcmitype/StillImage"/>
    <dc:title/>
   </cc:Work>
  </rdf:RDF>
 </metadata>
 <g transform="translate(-14.608 -24.999)">
  <g transform="translate(-30.343 -126.29)" stroke-width=".26458">
   <path d="m80.474 181.68c0 13.377-7.9517 18.047-17.761 18.047q-0.34088 0-0.68067-8e-3c-0.45452-0.01-0.9047-0.0314-1.3495-0.0617-8.8531-0.62657-15.731-5.5374-15.731-17.978 0-12.874 16.452-29.12 17.688-30.322l2e-3 -2e-3c0.0476-0.0465 0.0714-0.0693 0.0714-0.0693s17.761 17.017 17.761 30.394z" fill="#6c63ff"/>
   <path d="m62.065 197.68 6.4962-9.0771-6.5124 10.074-0.0173 1.0421c-0.45452-0.01-0.9047-0.0314-1.3495-0.0617l0.70017-13.383-5e-3 -0.10389 0.0119-0.0195 0.066-1.264-6.5287-10.099 6.5492 9.1507 0.0152 0.26837 0.52917-10.112-5.5893-10.435 5.6575 8.6605 0.55081-20.964 2e-3 -0.0714v0.0693l-0.092 16.531 5.5644-6.5536-5.5872 7.9777-0.14717 9.0533 5.1954-8.6886-5.2171 10.021-0.0822 5.0331 7.5426-12.093-7.5708 13.849z" fill="#3f3d56"/>
  </g>
 </g>
</svg>
