<?xml version="1.0" encoding="UTF-8"?>
<!-- Created with Inkscape (http://www.inkscape.org/) -->
<svg width="16.637mm" height="35.365mm" version="1.1" viewBox="0 0 16.637 35.365" xmlns="http://www.w3.org/2000/svg" xmlns:cc="http://creativecommons.org/ns#" xmlns:dc="http://purl.org/dc/elements/1.1/" xmlns:rdf="http://www.w3.org/1999/02/22-rdf-syntax-ns#">
 <metadata>
  <rdf:RDF>
   <cc:Work rdf:about="">
    <dc:format>image/svg+xml</dc:format>
    <dc:type rdf:resource="http://purl.org/dc/dcmitype/StillImage"/>
    <dc:title/>
   </cc:Work>
  </rdf:RDF>
 </metadata>
 <g transform="translate(.65687 -14.155)">
  <g transform="matrix(.079759 0 0 .069845 -146.92 15.883)">
   <path d="m1905.7 72.379h61.852v24.339a15.811 15.811 0 0 1-15.811 15.811h-30.23a15.811 15.811 0 0 1-15.811-15.811z" fill="#2f2e41"/>
   <path d="m1988.2 395.75c-14.085 14.271-28.192 14.366-42.32 0.46l-10.852-95.951-7.5959 96.151c-14.118 11.427-27.276 12.965-39.064 0.42461-11.246-83.075-17.358-160.25-7.5958-219.2l-20.617-83.555 46.66-21.702c9.3963 23.243-5.4233 35.131 28.088 34.733 33.216-0.39441 30.736-12.889 29.423-34.733l42.923 16.509a15.383 15.383 0 0 1 9.1467 18.99l-21.686 68.673c8.3487 34.667-0.2233 131.1-6.5107 219.2z" fill="#e6e6e6"/>
   <path d="m1923.1 479.3s-34.641 3.0344-39.281 1.1236q-0.4394-0.18092-0.8553-0.39352c-6.8962-3.5211-7.1063-13.382-0.6609-17.673l13.669-9.1-11.936-64.022 46.118 0.54256z" fill="#2f2e41"/>
   <path d="m1949.1 479.84s34.64 3.0344 39.281 1.1236q0.4393-0.18092 0.8552-0.39352c6.8963-3.5211 7.1064-13.382 0.6609-17.673l-13.669-9.1 16.819-64.022h-48.288z" fill="#2f2e41"/>
   <path d="m1867.7 251.42 6.8664 27.466a16.55 16.55 0 0 1-7.2009 17.996 16.55 16.55 0 0 1-25.31-12.203l-1.484-13.726-5.4256-130.46a54.878 54.878 0 0 1 33.859-50.693l10.631-4.4081z" fill="#e6e6e6"/>
   <path d="m2040.3 139.42-0.033 0.77046-4.3838 105.3-0.8464 20.346-0.1628 4.0367-1.4866 13.727a16.55 16.55 0 1 1-32.51-5.7945l6.8689-27.464-0.1519-2.04-0.9115-12.761-10.873-151.22 10.634 4.4056a54.958 54.958 0 0 1 33.856 50.697z" fill="#e6e6e6"/>
   <g fill="#2f2e41">
    <path d="m1939.4 259.25c-39.417 0-63.732-13.67-64.076-13.868l1.0846-1.8799c0.4843 0.27976 49.249 27.634 120.89 3.923l0.6824 2.06a185.9 185.9 0 0 1-58.585 9.7651z"/>
    <path d="m1900.4 359.29c-8.6746-19.518-8.7186-104.35-8.716-107.95l2.1703 2e-3c-6e-4 0.87743 0.04 87.97 8.5294 107.07z"/>
    <path d="m1904.9 360.17c-7.7273 0-12.862-1.6457-16.208-3.533-6.0943-3.4366-7.3516-8.1194-7.402-8.3165l2.1024-0.53832-1.0512 0.26916 1.0497-0.27446c0.044 0.16425 1.1412 4.0629 6.463 7.0236 5.8596 3.2586 17.654 5.6905 40.559-1.2356l0.6273 2.077c-10.961 3.3147-19.506 4.528-26.139 4.528z"/>
    <rect transform="rotate(-2.8038)" x="1877" y="174.87" width="2.1707" height="170.16"/>
    <path d="m1974 359.29-1.9838-0.88166c8.4892-19.1 8.5306-106.19 8.5295-107.07l2.1702-2e-3c0 3.6019-0.041 88.436-8.7159 107.95z"/>
    <path d="m1969.5 360.17c-6.6337 0-15.176-1.2123-26.139-4.5281l0.6273-2.077c22.904 6.9251 34.696 4.4952 40.559 1.2356 5.3218-2.9608 6.4185-6.8594 6.462-7.0236l2.1014 0.54362c-0.051 0.1971-1.3077 4.8799-7.402 8.3165-3.3465 1.8874-8.4828 3.533-16.208 3.533z"/>
    <rect transform="rotate(-87.202)" x="-155.71" y="1990.5" width="170.16" height="2.1707"/>
   </g>
   <polygon transform="translate(1612.2 -258.94)" points="292.77 367.13 297.87 367.13 306.55 386.66 335.85 386.66 349.95 367.13 355.25 367.13 339.1 391 304.38 391" fill="#6c63ff"/>
   <polygon transform="translate(1612.2 -258.94)" points="394.44 379.07 394.72 379.63 394.44 380.15"/>
   <path d="m2042.4 139.42-0.033 0.77046-20.585 5.979-12.739-25.479 13.032-23.894a54.81 54.81 0 0 1 20.324 42.624z" fill="#6c63ff"/>
   <path d="m1833.8 139.42 0.033 0.77046 20.585 5.979 12.739-25.479-13.032-23.894a54.81 54.81 0 0 0-20.324 42.624z" fill="#6c63ff"/>
   <circle cx="1936.6" cy="32.772" r="57.512" fill="#e6e6e6"/>
   <circle cx="1936.6" cy="40.368" r="42.32" fill="#2f2e41"/>
   <polygon transform="translate(1612.2 -258.94)" points="395.57 509.82 394.85 507.24 393.9 494.48 424.28 504.43 423.4 524.78" fill="#6c63ff"/>
   <polygon transform="translate(1612.2 -258.94)" points="256.5 509.82 257.26 507.24 258.26 494.48 226.32 504.43 227.25 524.78" fill="#6c63ff"/>
   <polygon transform="translate(1612.2 -258.94)" points="282.75 336.41 284.92 336.26 285.91 350.57 305.06 389.92 338.52 389.92 363.08 353.63 368.3 337.6 370.37 338.28 364.96 354.72 339.68 392.09 303.7 392.09 283.78 351.14" fill="#2f2e41"/>
  </g>
 </g>
</svg>
