<?xml version="1.0" encoding="UTF-8"?>
<!-- Created with Inkscape (http://www.inkscape.org/) -->
<svg width="51.375mm" height="29.494mm" version="1.1" viewBox="0 0 51.375 29.494" xmlns="http://www.w3.org/2000/svg" xmlns:cc="http://creativecommons.org/ns#" xmlns:dc="http://purl.org/dc/elements/1.1/" xmlns:rdf="http://www.w3.org/1999/02/22-rdf-syntax-ns#">
 <metadata>
  <rdf:RDF>
   <cc:Work rdf:about="">
    <dc:format>image/svg+xml</dc:format>
    <dc:type rdf:resource="http://purl.org/dc/dcmitype/StillImage"/>
    <dc:title/>
   </cc:Work>
  </rdf:RDF>
 </metadata>
 <g transform="translate(-37.587 -11.2)">
  <g transform="matrix(.054808 0 0 .07051 130.09 -.73697)">
   <g fill="#3f3d56">
    <path d="m-828.17 379.32c-9.77 3.6-26.93 6.56-46.79 8.94-54 6.48-128 8.78-128 8.78s-380.41 31.55-665.52-85.79c0 0-41.47-21.74-3-51a125.29 125.29 0 0 1 18.82-11.48l0.47-0.47a99.89 99.89 0 0 1 14.13-10.89c14.77-9.55 39.71-20.87 70.07-15.74l748.82 121.11s27.35 23.11-9 36.54z"/>
    <path d="m-977.37 324.43 156.76-111.22 69.09 11.95-67.65 117.62s-156.4 1.25-158.2-18.35z"/>
    <polygon transform="translate(-1687.8 -17.338)" points="493.23 309.92 315.78 274.2 628.03 186.63 678.36 197.15 537.31 260.6"/>
   </g>
   <path d="m-874.96 388.26c-54 6.48-128 8.78-128 8.78s-380.41 31.55-665.52-85.79c0 0-41.47-21.74-3-51l0.13 0.54s61.52 41.58 355.46 76.29z" fill="#6c63ff"/>
   <path d="m-925.15 385.86 139.6 57 35.07-3.89-83.5-62.76s-101-21.55-91.17 9.65z" fill="#3f3d56"/>
   <path d="m-1620.7 266.88c-6.66 0.11-21.92-11.06-31.41-18.58a99.89 99.89 0 0 1 14.13-10.89c7.65 5.87 21.26 15.37 28.83 15 10.93-0.45-1.52 14.29-11.55 14.47z" fill="#6c63ff"/>
   <path d="m-986.52 582.89-89.63 4.69-252-169.92-46.78-31.55-22.72-15.33c42.63-36 216.56 13.65 216.56 13.65 3.33 2.81 4.39 7.48 4.24 12.64-0.29 9.66-4.83 21-6.58 25.08-0.42 1-0.68 1.53-0.68 1.53z" fill="#3f3d56"/>
  </g>
 </g>
</svg>
