<?xml version="1.0" encoding="UTF-8"?>
<!-- Created with Inkscape (http://www.inkscape.org/) -->
<svg width="27.216mm" height="45.255mm" version="1.1" viewBox="0 0 27.216 45.255" xmlns="http://www.w3.org/2000/svg" xmlns:cc="http://creativecommons.org/ns#" xmlns:dc="http://purl.org/dc/elements/1.1/" xmlns:rdf="http://www.w3.org/1999/02/22-rdf-syntax-ns#">
 <metadata>
  <rdf:RDF>
   <cc:Work rdf:about="">
    <dc:format>image/svg+xml</dc:format>
    <dc:type rdf:resource="http://purl.org/dc/dcmitype/StillImage"/>
    <dc:title/>
   </cc:Work>
  </rdf:RDF>
 </metadata>
 <g transform="translate(-20.655 -25.866)">
  <g transform="matrix(.26458 0 0 .26458 565.22 -777.18)">
   <polygon transform="matrix(.25973 0 0 .25973 -2147 3035.1)" points="522.99 634.84 522.99 647.77 519.64 647.77 518.04 634.84" fill="#9f616a"/>
   <path d="m-2011 3204.2h-2.8073v-0.035a1.0939 1.0939 0 0 1 1.0927-1.0927h1.7146z" fill="#2f2e41" stroke-width=".25973"/>
   <polygon transform="matrix(.25973 0 0 .25973 -2147 3035.1)" points="559.56 630.33 566.22 641.42 563.34 643.14 555.32 632.88" fill="#9f616a"/>
   <g stroke-width=".25973">
    <path d="m-2001.8 3203.8-0.018-0.031a1.094 1.094 0 0 1 0.3739-1.4994l1.4697-0.883 0.581 0.9671z" fill="#2f2e41"/>
    <path d="m-2011 3202.7-0.015-1e-4a11.691 11.691 0 0 1-1.2676-0.073c-0.1604-0.016-0.3344-0.033-0.5441-0.05h-0.01c-0.143-0.043-0.147-1.3842-0.086-5.9765 0.031-2.3522 0.066-5.0181 0.024-6.7159l-5e-4 -0.017 0.013-0.011a6.3827 6.3827 0 0 1 5.6161-1.4258h0.015l0.01 0.014c0.8557 1.4478 2.1476 3.5332 3.397 5.5501 2.8681 4.6297 3.6884 5.9913 3.5985 6.094l-0.011 0.01c-0.1958 0.098-0.3429 0.1733-0.4679 0.2374a15.429 15.429 0 0 1-1.5229 0.6869l-0.023 0.01-0.017-0.018c-2.9101-3.1888-5.3319-6.751-6.8298-10.044-0.1751 1.1242-0.3875 2.5922-0.612 4.1433-0.6456 4.4602-1.0818 7.3972-1.2575 7.576z" fill="#2f2e41"/>
    <path d="m-2010.2 3190.2a15.244 15.244 0 0 1 5.0973 0.8534 11.603 11.603 0 0 0-2.601-7.5646l-0.013-0.015 0.01-0.019c0.4571-1.3209 0.9296-2.6862 1.3518-4.0448l-0.01-0.023c-0.2961-1.0527-0.9317-2.1165-1.943-3.2522a0.6224 0.6224 0 0 0-0.8496-0.043 7.9154 7.9154 0 0 0-2.5508 6.4438l7e-4 0.01v0.01c-0.7919 2.6828-1.0793 4.0608-1.333 5.2766-0.185 0.8869-0.3452 1.6549-0.6668 2.7522a16.524 16.524 0 0 1 3.5091-0.3778z" fill="#cbcbcb"/>
   </g>
   <polygon transform="matrix(.25973 0 0 .25973 -2147 3035.1)" points="536.72 564.42 526.8 586.01 521.13 580.28" opacity=".1"/>
   <g stroke-width=".25973">
    <circle cx="-2008.8" cy="3173.8" r="1.8329" fill="#9f616a"/>
    <path d="m-2011 3172.7h2.9104v-1.2687c-0.6388-0.2537-1.2639-0.4696-1.6418 0a1.2686 1.2686 0 0 0-1.2686 1.2686z" fill="#2f2e41"/>
    <path d="m-2007.9 3171.2c1.7399 0 2.2269 2.1808 2.2269 3.4111 0 0.6862-0.3103 0.9316-0.7979 1.0146l-0.1722-0.9184-0.4034 0.958c-0.1369 7e-4 -0.2808 0-0.43 0l-0.1368-0.2816-0.3049 0.2766c-1.2214 0-2.2085 0.1798-2.2085-1.0443 0-1.2304 0.4271-3.4112 2.2268-3.4112z" fill="#2f2e41"/>
    <path d="m-1955.3 3086.6c0 48.309-50.646 71.424-50.646 71.424s-51.166-23.116-52.205-71.424c-0.6107-28.395 23.024-51.426 51.426-51.426 28.402 0 51.426 23.024 51.426 51.426z" fill="#6c63ff"/>
   </g>
   <polygon transform="matrix(.25973 0 0 .25973 -2147 3035.1)" points="547.27 630.45 547.27 646.31 543.16 646.31 541.21 630.45" fill="#ffb7b7"/>
   <path d="m-2006.7 3202.7h2.0589v1.2963h-3.3552a1.2963 1.2963 0 0 1 1.2963-1.2963z" fill="#2f2e41" stroke-width=".25973"/>
   <polygon transform="matrix(.25973 0 0 .25973 -2147 3035.1)" points="562.7 630.45 562.7 646.31 558.59 646.31 556.63 630.45" fill="#ffb7b7"/>
   <g stroke-width=".25973">
    <path d="m-2002.7 3202.7h2.0588v1.2963h-3.3551a1.2963 1.2963 0 0 1 1.2963-1.2963z" fill="#2f2e41"/>
    <path d="m-2001 3190.7a0.93544 0.93544 0 0 1-0.1796-1.4231l-0.7029-9.9753 2.0247 0.1964 0.056 9.7688a0.94051 0.94051 0 0 1-1.1979 1.4332z" fill="#ffb7b7"/>
    <path d="m-2005 3200.9-1.1752-0.056a0.39176 0.39176 0 0 1-0.3732-0.3886l-0.082-11.891a0.39194 0.39194 0 0 1 0.4481-0.3905l4.7016 0.6825a0.38957 0.38957 0 0 1 0.3355 0.3848l0.6047 11.018a0.39189 0.39189 0 0 1-0.3918 0.3948h-1.267a0.39 0.39 0 0 1-0.3871-0.3309s-0.957-8.2647-1.0884-8.2598c-0.1321 0-0.9175 8.4917-0.9175 8.4917a0.39334 0.39334 0 0 1-0.3891 0.3453q-0.01 0-0.019-5e-4z" fill="#2f2e41"/>
    <path d="m-2001.5 3182.7a0.39026 0.39026 0 0 1-0.1618-0.2961l-0.1484-2.6886a1.0796 1.0796 0 0 1 2.12-0.342l0.6517 2.4038a0.39229 0.39229 0 0 1-0.2756 0.4807l-1.8539 0.5027a0.39035 0.39035 0 0 1-0.332-0.061z" fill="#3f3d56"/>
    <circle cx="-2003.2" cy="3174.2" r="2.1387" fill="#ffb7b7"/>
    <path d="m-2001.7 3175.9a0.6908 0.6908 0 0 1-1.192-0.3837 0.70146 0.70146 0 0 1 8e-4 -0.1355c0.027-0.2572 0.1754-0.4907 0.1398-0.7622a0.39972 0.39972 0 0 0-0.073-0.1871c-0.3179-0.4258-1.0642 0.1904-1.3643-0.195-0.184-0.2364 0.032-0.6084-0.1089-0.8726-0.1863-0.3486-0.7383-0.1766-1.0844-0.3675-0.3852-0.2125-0.3621-0.8033-0.1086-1.1627a1.8289 1.8289 0 0 1 1.3865-0.7059 3.7193 3.7193 0 0 1 1.5668 0.3057 3.131 3.131 0 0 1 1.4803 1.0264 2.5058 2.5058 0 0 1 0.2533 2.1336c-0.1293 0.4319-0.5705 0.9595-0.8963 1.3065z" fill="#2f2e41"/>
    <path d="m-2001.1 3177.7q-0.056-0.04-0.1136-0.079a2.8178 2.8178 0 0 0-0.6614-0.3243v-0.5619h-1.6545v0.5214a2.9013 2.9013 0 0 0-2.104 2.4108l-1.1266 8.3638a0.38989 0.38989 0 0 0 0.081 0.2962 0.38482 0.38482 0 0 0 0.2659 0.1456 5.9147 5.9147 0 0 1 2.2361 0.7659 3.3198 3.3198 0 0 0 1.6289 0.4158 3.9262 3.9262 0 0 0 1.3258-0.2361 0.38893 0.38893 0 0 0 0.2541-0.3487c0.041-0.9001 0.2778-5.5332 0.9686-8.3593a2.889 2.889 0 0 0-1.1003-3.0105z" fill="#3f3d56"/>
   </g>
   <polygon transform="matrix(.25973 0 0 .25973 -2147 3035.1)" points="625.09 420 609.09 484 477.09 484 461.09 420" fill="#3f3d56"/>
   <rect x="-2022" y="3189.3" width="31.946" height="16.648" fill="#fff" stroke-width=".25973"/>
   <g fill="#3f3d56">
    <path d="m-1989.8 3206.2h-32.466v-17.168h32.466zm-31.946-0.5195h31.427v-16.129h-31.427z" stroke-width=".25973"/>
    <polygon transform="matrix(.25973 0 0 .25973 -2147 3035.1)" points="574.09 482.45 568.3 491.55 517.88 491.55 512.09 482.45"/>
    <g stroke-width=".25973">
     <rect x="-2022.9" y="3160.8" width=".51945" height="25.453"/>
     <rect x="-1989.6" y="3160.8" width=".51945" height="25.453"/>
     <path d="m-2000.8 3143.9-0.3171-0.4114c15.006-11.572 32.895-31.398 32.895-60.127a51.096 51.096 0 0 0-31.25-47.145l0.2024-0.4783a51.614 51.614 0 0 1 31.567 47.623c0 28.941-17.998 48.895-33.097 60.539z"/>
     <path d="m-2017.4 3143.9-0.3171-0.4114c15.006-11.572 32.895-31.398 32.895-60.127a51.156 51.156 0 0 0-30.894-46.993l0.2059-0.4768a51.675 51.675 0 0 1 31.208 47.47c0 28.941-17.998 48.895-33.097 60.539z"/>
     <path d="m-1996.1 3143.9c-15.099-11.644-33.097-31.598-33.097-60.539a51.675 51.675 0 0 1 31.208-47.47l0.206 0.4769a51.156 51.156 0 0 0-30.894 46.993c0 28.73 17.888 48.555 32.895 60.127z"/>
     <path d="m-2012.8 3143.9c-15.099-11.644-33.097-31.598-33.097-60.539a51.578 51.578 0 0 1 31.778-47.712l0.2002 0.4794a51.06 51.06 0 0 0-31.459 47.233c0 28.73 17.888 48.555 32.895 60.127z"/>
     <rect x="-2007" y="3035.1" width=".51945" height="109.08"/>
    </g>
   </g>
   <g stroke-width=".25973">
    <line x1="-2022" x2="-2012.4" y1="3195.2" y2="3185.7" fill="#fff"/>
    <rect transform="rotate(-45)" x="-3689.1" y="829.35" width="13.471" height=".5194" fill="#3f3d56"/>
    <line x1="-2022" x2="-2007.8" y1="3200.4" y2="3185.5" fill="#fff"/>
    <rect transform="rotate(-46.444)" x="-3712.6" y="739.67" width="20.549" height=".51938" fill="#3f3d56"/>
    <rect x="-2026" y="3185.5" width="38.959" height="4.6751" fill="#fff"/>
    <path d="m-1986.8 3190.5h-39.478v-5.1945h39.478zm-38.959-0.5195h38.439v-4.1556h-38.439z" fill="#3f3d56"/>
    <path d="m-2013.4 3187.7a0.71411 0.71411 0 0 0 0.643-0.8863l2.1227-1.3908-1.2106-0.5229-1.8301 1.4008a0.71798 0.71798 0 0 0 0.275 1.3992z" fill="#9f616a"/>
    <path d="m-2011.4 3186.7-0.027-0.019c-0.5052-0.3719-1.066-0.7564-1.6084-1.1282l-0.033-0.022 0.026-0.03c1.1576-1.3544 2.3165-2.7691 3.4374-4.1377l0.011-0.01v-0.01h0.01-0.031l-0.3454-2.7094a1.7367 1.7367 0 0 1 0.037-1.8609 1.4738 1.4738 0 0 1 1.9178-0.4379 1.2585 1.2585 0 0 1 0.5527 0.9398 1.135 1.135 0 0 1-0.3009 0.9294 39.082 39.082 0 0 1 0.1579 3.9552l1e-4 0.012-0.01 0.01c-1.195 1.5181-2.5076 3.0282-3.777 4.4886z" fill="#cbcbcb"/>
    <path d="m-2010.9 3178.4a0.91641 0.91641 0 0 1 0.021 0.1428l3.7405 2.1579 0.9092-0.5234 0.9693 1.2689-1.945 1.3863-4.2675-3.3666a0.91394 0.91394 0 1 1 0.5726-1.0659z" fill="#ffb7b7"/>
    <path d="m-2007 3180.5a0.39025 0.39025 0 0 1 0.1126-0.3181l1.9038-1.9042a1.0796 1.0796 0 0 1 1.6691 1.351l-1.3558 2.0892a0.39229 0.39229 0 0 1-0.542 0.1154l-1.6113-1.0457a0.39037 0.39037 0 0 1-0.1764-0.2876z" fill="#3f3d56"/>
   </g>
  </g>
 </g>
</svg>
