<?xml version="1.0" encoding="UTF-8" standalone="no"?>
<!-- Created with Inkscape (http://www.inkscape.org/) -->

<svg
   xmlns:dc="http://purl.org/dc/elements/1.1/"
   xmlns:cc="http://creativecommons.org/ns#"
   xmlns:rdf="http://www.w3.org/1999/02/22-rdf-syntax-ns#"
   xmlns:svg="http://www.w3.org/2000/svg"
   xmlns="http://www.w3.org/2000/svg"
   xmlns:sodipodi="http://sodipodi.sourceforge.net/DTD/sodipodi-0.dtd"
   xmlns:inkscape="http://www.inkscape.org/namespaces/inkscape"
   width="89.897949mm"
   height="179.44766mm"
   viewBox="0 0 89.897951 179.44766"
   version="1.1"
   id="svg1049"
   inkscape:version="0.92.3 (2405546, 2018-03-11)"
   sodipodi:docname="nave.svg">
  <defs
     id="defs1043" />
  <sodipodi:namedview
     id="base"
     pagecolor="#ffffff"
     bordercolor="#666666"
     borderopacity="1.0"
     inkscape:pageopacity="0.0"
     inkscape:pageshadow="2"
     inkscape:zoom="0.7"
     inkscape:cx="607.68319"
     inkscape:cy="181.68925"
     inkscape:document-units="mm"
     inkscape:current-layer="layer1"
     showgrid="false"
     inkscape:window-width="1920"
     inkscape:window-height="1013"
     inkscape:window-x="-9"
     inkscape:window-y="-9"
     inkscape:window-maximized="1"
     fit-margin-top="0"
     fit-margin-left="0"
     fit-margin-right="0"
     fit-margin-bottom="0" />
  <metadata
     id="metadata1046">
    <rdf:RDF>
      <cc:Work
         rdf:about="">
        <dc:format>image/svg+xml</dc:format>
        <dc:type
           rdf:resource="http://purl.org/dc/dcmitype/StillImage" />
        <dc:title></dc:title>
      </cc:Work>
    </rdf:RDF>
  </metadata>
  <g
     inkscape:label="Capa 1"
     inkscape:groupmode="layer"
     id="layer1"
     transform="translate(47.14484,82.598354)">
    <g
       id="g1331"
       transform="matrix(1.2462115,0.02906919,-0.02819717,1.2088275,-306.90763,252.76996)">
      <path
         id="path995"
         d="m 228.72829,-135.12464 -5.24727,0.14489 a 3.6545096,3.6545096 0 0 1 -2.24521,-0.62942 c -0.56982,-0.42386 -0.83121,-0.99685 -0.71661,-1.57229 l 1.03256,-5.18923 c 0.19459,-0.97896 1.39424,-1.71903 2.85219,-1.7593 l 2.89784,-0.08 c 1.45794,-0.0403 2.6966,0.63248 2.94494,1.59922 l 1.31736,5.12435 c 0.14618,0.56823 -0.0832,1.15478 -0.62876,1.60944 a 3.654507,3.654507 0 0 1 -2.20704,0.75236 z"
         inkscape:connector-curvature="0"
         style="fill:#3f3d56;stroke-width:0.26458332" />
      <path
         id="path997"
         d="m 260.64508,-135.27295 -5.24726,0.14489 a 3.654507,3.654507 0 0 1 -2.2452,-0.62942 c -0.56981,-0.42386 -0.83121,-0.99685 -0.71662,-1.57229 l 1.03256,-5.18923 c 0.19459,-0.97896 1.39425,-1.71904 2.85219,-1.75929 l 2.89784,-0.08 c 1.45796,-0.0403 2.6966,0.63247 2.94494,1.59921 l 1.31736,5.12435 c 0.14617,0.56824 -0.0832,1.15478 -0.62876,1.60944 a 3.6544699,3.6544699 0 0 1 -2.20705,0.75236 z"
         inkscape:connector-curvature="0"
         style="fill:#3f3d56;stroke-width:0.26458332" />
      <path
         id="path999"
         d="m 210.50769,-179.32724 a 1.1460242,1.1460242 0 0 1 0.42201,-2.19805 l 59.65501,-1.64724 a 1.1456458,1.1456458 0 0 1 1.17707,1.11337 v 1e-4 a 1.1471619,1.1471619 0 0 1 -1.11369,1.17698 l -1.2e-4,-5e-5 -59.65501,1.64722 a 1.139489,1.139489 0 0 1 -0.48527,-0.0923 z"
         inkscape:connector-curvature="0"
         style="fill:#3f3d56;stroke-width:0.26458332" />
      <rect
         id="rect1001"
         transform="rotate(-1.5817507)"
         height="57.594601"
         width="17.058699"
         y="-192.58167"
         x="220.87137"
         style="fill:#e6e6e6;stroke-width:0.26458332" />
      <polygon
         transform="matrix(0.26458333,0,0,0.26458333,168.89354,-288.23747)"
         id="polygon1003"
         points="229.737,366.828 229.748,520.587 244.844,524.916 242.126,333.079 "
         style="fill:#cccccc" />
      <path
         id="path1005"
         d="m 223.90848,-214.12189 c -3.19019,0.0906 -5.62421,5.61158 -5.56568,7.76601 l 0.10768,3.90039 11.55148,-0.31898 -0.10769,-3.90038 c -0.0605,-2.15438 -2.79545,-7.53262 -5.98579,-7.44704 z"
         inkscape:connector-curvature="0"
         style="fill:#3f3d56;stroke-width:0.26458332" />
      <path
         id="path1007"
         d="m 215.69252,-174.76278 a 2.2515618,2.2515618 0 0 1 -2.31019,-2.18602 l -0.17529,-6.34759 a 2.2489619,2.2489619 0 1 1 4.49621,-0.12415 l 0.17528,6.34759 a 2.2515565,2.2515565 0 0 1 -2.18601,2.31017 z"
         inkscape:connector-curvature="0"
         style="fill:#3f3d56;stroke-width:0.26458332" />
      <polyline
         transform="matrix(0.26458333,0,0,0.26458333,168.89354,-288.23747)"
         id="polyline1009"
         points="193.233 339.284 192.928 323.429 197.086 323.326 197.391 339.13 201.16 569.476 197.001 569.591"
         style="fill:#3f3d56" />
      <path
         id="path1011"
         d="m 234.47879,-188.65865 -19.77458,0.54604 c -1.88873,-2.30324 -2.06029,-12.11595 1.88142,-13.98352 l 1.54578,-2.62473 11.91751,-0.58177 1.39281,2.76359 c 1.96074,1.66843 2.97177,11.41988 3.03706,13.88039 z"
         inkscape:connector-curvature="0"
         style="fill:#e6e6e6;stroke-width:0.26458332" />
      <path
         id="path1013"
         d="m 227.03596,-193.36492 -5.00065,0.13809 c -0.96497,0.0267 -1.78539,-1.22529 -1.82861,-2.79039 -0.0432,-1.5651 0.70688,-2.86041 1.67185,-2.88704 l 5.00064,-0.1381 c 0.96498,-0.0266 1.7854,1.22529 1.82862,2.79039 0.0432,1.5651 -0.70688,2.8604 -1.67185,2.88705 z"
         inkscape:connector-curvature="0"
         style="fill:#6c63ff;stroke-width:0.26458332" />
      <polygon
         transform="matrix(0.26458333,0,0,0.26458333,168.89354,-288.23747)"
         id="polygon1015"
         points="144.192,493.088 137.386,555.138 182.834,539.953 183.151,465.568 "
         style="fill:#e6e6e6" />
      <rect
         id="rect1017"
         transform="rotate(-1.5817507)"
         height="57.594601"
         width="17.058699"
         y="-192.37788"
         x="253.7952"
         style="fill:#e6e6e6;stroke-width:0.26458332" />
      <polygon
         transform="matrix(0.26458333,0,0,0.26458333,168.89354,-288.23747)"
         id="polygon1019"
         points="315.257,367.222 319.236,520.93 304.257,525.649 301.996,333.806 "
         style="fill:#cccccc" />
      <path
         id="path1023"
         d="m 256.49261,-214.81779 c -3.1902,0.0906 -5.62422,5.61159 -5.56569,7.76602 l 0.10768,3.90038 11.55148,-0.31897 -0.10768,-3.9004 c -0.0605,-2.15437 -2.79546,-7.53261 -5.98579,-7.44703 z"
         inkscape:connector-curvature="0"
         style="fill:#3f3d56;stroke-width:0.26458332" />
      <polyline
         transform="matrix(0.26458333,0,0,0.26458333,168.89354,-288.23747)"
         id="polyline1025"
         points="343.567 344.247 343.262 328.392 347.42 328.288 347.725 344.093 351.494 574.439 347.335 574.554"
         style="fill:#3f3d56" />
      <path
         id="path1027"
         d="m 267.06291,-189.35455 -19.77456,0.54605 c -0.34479,-2.08408 0.10123,-11.80913 1.88142,-13.98353 l 1.54578,-2.62473 11.91751,-0.58177 1.39281,2.76359 c 3.51862,0.28674 4.74933,9.84334 3.03704,13.88039 z"
         inkscape:connector-curvature="0"
         style="fill:#e6e6e6;stroke-width:0.26458332" />
      <path
         id="path1029"
         d="m 259.64427,-193.18486 -5.00064,0.13809 c -0.96498,0.0267 -1.79082,-1.42179 -1.84071,-3.22836 -0.0499,-1.80657 0.6948,-3.29839 1.65973,-3.32504 l 5.00065,-0.13809 c 0.96497,-0.0266 1.79081,1.4218 1.8407,3.22836 0.0499,1.80657 -0.69477,3.29838 -1.65973,3.32504 z"
         inkscape:connector-curvature="0"
         style="fill:#6c63ff;stroke-width:0.26458332" />
      <polygon
         transform="matrix(0.26458333,0,0,0.26458333,168.89354,-288.23747)"
         id="polygon1031"
         points="405.749,478.93 409.715,541.227 365.009,523.983 368.086,449.662 "
         style="fill:#e6e6e6" />
      <path
         id="path1049"
         d="m 238.16562,-283.15999 c -3.19019,0.0906 -5.62422,5.61159 -5.56569,7.76602 l 0.10769,3.90038 11.55148,-0.31897 -0.10772,-3.90039 c -0.0605,-2.15439 -2.79542,-7.53262 -5.98576,-7.44704 z"
         inkscape:connector-curvature="0"
         style="fill:#3f3d56;stroke-width:0.26458332" />
      <path
         id="path1051"
         d="m 245.04397,-135.46462 -5.24726,0.14489 a 3.6545123,3.6545123 0 0 1 -2.24521,-0.62942 c -0.56982,-0.42386 -0.83122,-0.99686 -0.71661,-1.57229 l 1.03256,-5.18923 c 0.1946,-0.97896 1.39424,-1.71904 2.8522,-1.75929 l 2.89784,-0.08 c 1.45796,-0.0402 2.6966,0.63247 2.94495,1.59921 l 1.31733,5.12433 c 0.14617,0.56824 -0.0832,1.15478 -0.62876,1.60944 a 3.6544673,3.6544673 0 0 1 -2.20704,0.75238 z"
         inkscape:connector-curvature="0"
         style="fill:#3f3d56;stroke-width:0.26458332" />
      <rect
         id="rect1053"
         transform="rotate(-1.5817507)"
         height="116.42085"
         width="17.058699"
         y="-251.40298"
         x="237.36166"
         style="fill:#e6e6e6;stroke-width:0.26458332" />
      <polyline
         transform="matrix(0.26458333,0,0,0.26458333,168.89354,-288.23747)"
         id="polyline1055"
         points="270.868 325.949 270.563 310.094 274.721 309.991 275.026 325.795 278.795 556.141 274.636 556.256"
         style="fill:#3f3d56" />
      <path
         id="path1057"
         d="m 250.74114,-247.67906 -23.10498,0.638 c -0.40284,-2.43507 0.11827,-13.79802 2.19828,-16.33861 l 0.57,-3.03266 15.95346,-0.44054 0.83471,2.95567 c 2.29092,1.94946 3.47223,13.34323 3.54853,16.21814 z"
         inkscape:connector-curvature="0"
         style="fill:#e6e6e6;stroke-width:0.26458332" />
      <path
         id="path1059"
         d="m 246.8622,-266.49501 -16.46306,0.45461 c -0.60765,0.0168 -1.10943,-0.30228 -1.12072,-0.71263 a 0.51638464,0.51638464 0 0 1 0.0256,-0.17422 l 2.55718,-7.87802 c 0.1095,-0.33734 0.54541,-0.58509 1.05415,-0.59914 l 10.91788,-0.30146 c 0.50875,-0.014 0.95765,0.20926 1.08561,0.54005 l 2.98803,7.7249 c 0.15283,0.3951 -0.20013,0.80625 -0.78836,0.91832 a 1.6088148,1.6088148 0 0 1 -0.25627,0.0276 z"
         inkscape:connector-curvature="0"
         style="fill:#e6e6e6;stroke-width:0.26458332" />
      <path
         id="path1061"
         d="m 232.02316,-202.53192 a 2.0177416,2.0177416 0 0 1 -0.41828,-0.24209 1.482725,1.482725 0 0 1 -0.62948,-1.14339 l -0.59818,-21.66345 c -0.0246,-0.89677 0.8534,-1.65116 1.9573,-1.68169 l 14.73814,-0.40704 c 1.10412,-0.0307 2.02218,0.6744 2.0471,1.57116 l 0.59815,21.66355 a 1.4823757,1.4823757 0 0 1 -0.56537,1.17632 2.2505908,2.2505908 0 0 1 -1.39205,0.50531 l -14.73791,0.40684 a 2.3600436,2.3600436 0 0 1 -0.99942,-0.18552 z"
         inkscape:connector-curvature="0"
         style="fill:#3f3d56;stroke-width:0.26458332" />
      <path
         id="path1063"
         d="m 241.4562,-267.8892 -5.00065,0.13809 c -0.96497,0.0266 -1.78093,-1.06359 -1.81865,-2.42999 -0.0377,-1.3664 0.71682,-2.50001 1.68179,-2.52665 l 5.00065,-0.13809 c 0.96497,-0.0266 1.78093,1.06359 1.81866,2.42999 0.0377,1.36639 -0.71682,2.5 -1.6818,2.52665 z"
         inkscape:connector-curvature="0"
         style="fill:#6c63ff;stroke-width:0.26458332" />
      <path
         id="path1090"
         d="m 265.86282,-176.16895 a 2.2515645,2.2515645 0 0 1 -2.31019,-2.18602 l -0.17528,-6.34759 a 2.2489583,2.2489583 0 0 1 4.49619,-0.12414 l 0.17529,6.34758 a 2.2515645,2.2515645 0 0 1 -2.18601,2.31017 z"
         inkscape:connector-curvature="0"
         style="fill:#3f3d56;stroke-width:0.26458332" />
    </g>
  </g>
</svg>
