<?xml version="1.0" encoding="UTF-8"?>
<!-- Created with Inkscape (http://www.inkscape.org/) -->
<svg width="37.074mm" height="56.395mm" version="1.1" viewBox="0 0 37.074 56.395" xmlns="http://www.w3.org/2000/svg" xmlns:cc="http://creativecommons.org/ns#" xmlns:dc="http://purl.org/dc/elements/1.1/" xmlns:rdf="http://www.w3.org/1999/02/22-rdf-syntax-ns#">
 <metadata>
  <rdf:RDF>
   <cc:Work rdf:about="">
    <dc:format>image/svg+xml</dc:format>
    <dc:type rdf:resource="http://purl.org/dc/dcmitype/StillImage"/>
    <dc:title/>
   </cc:Work>
  </rdf:RDF>
 </metadata>
 <g transform="translate(-247.61 -25.868)">
  <g transform="rotate(1.1724 -32773 3815.5)">
   <path d="m181.22-649.33c-3.1902 0.0906-5.6242 5.6116-5.5657 7.766l0.1077 3.9004 11.551-0.31897-0.10772-3.9004c-0.0605-2.1544-2.7954-7.5326-5.9858-7.447z" fill="#3f3d56" stroke-width=".26458"/>
   <rect transform="matrix(.99979 .020374 .077301 .99701 0 0)" x="219.99" y="-630.64" width="18.274" height="20.63" fill="#e6e6e6" stroke-width=".11528"/>
   <g stroke-width=".26458">
    <path d="m185.51-596.03-5.2472 0.14489a3.6545 3.6545 0 0 1-2.2452-0.62942c-0.56983-0.42386-0.83123-0.99685-0.71662-1.5723l1.0326-5.1892c0.19461-0.97896 1.3942-1.719 2.8522-1.7593l2.8978-0.08c1.458-0.0402 2.6966 0.63247 2.9449 1.5992l1.3173 5.1243c0.14617 0.56825-0.0832 1.1548-0.62876 1.6094a3.6545 3.6545 0 0 1-2.207 0.75238z" fill="#3f3d56"/>
    <path d="m193.79-613.85-23.105 0.63802c-0.40284-2.4351 0.11827-13.798 2.1983-16.339l0.57-3.0326 15.953-0.44053 0.8347 2.9557c2.2909 1.9494 3.4722 13.343 3.5485 16.218z" fill="#e6e6e6"/>
    <path d="m189.92-632.66-16.463 0.4546c-0.60764 0.0168-1.1094-0.30227-1.1207-0.71262a0.51647 0.51647 0 0 1 0.0256-0.17423l2.5572-7.878c0.1095-0.33735 0.54541-0.58509 1.0542-0.59914l10.918-0.30146c0.50875-0.014 0.95766 0.20926 1.0856 0.54005l2.988 7.7249c0.15283 0.3951-0.20013 0.80624-0.78836 0.91832a1.6088 1.6088 0 0 1-0.25627 0.0276z" fill="#e6e6e6"/>
    <path d="m184.51-634.06-5.0006 0.13809c-0.96497 0.0267-1.7809-1.0636-1.8187-2.43-0.0377-1.3664 0.71683-2.5 1.6818-2.5266l5.0006-0.13809c0.96498-0.0266 1.7809 1.0636 1.8187 2.43 0.0377 1.3664-0.71682 2.5-1.6818 2.5266z" fill="#6c63ff"/>
   </g>
   <polygon transform="matrix(.26458 0 0 .26458 78.374 -654.41)" points="460.93 168.52 464.9 230.82 420.19 213.58 423.27 139.26" fill="#e6e6e6"/>
   <polygon transform="matrix(.26458 0 0 .26458 78.374 -654.41)" points="328.71 168.52 324.74 230.82 369.45 213.58 366.37 139.26" fill="#e6e6e6"/>
   <polyline transform="matrix(.26458 0 0 .26458 78.374 -654.41)" points="387.62 93.825 387.32 77.97 391.48 77.867 391.78 93.672 395.55 124.02 391.39 124.13" fill="#3f3d56"/>
  </g>
 </g>
</svg>
