<?xml version="1.0" encoding="UTF-8"?>
<!-- Created with Inkscape (http://www.inkscape.org/) -->
<svg width="106.32mm" height="66.096mm" version="1.1" viewBox="0 0 106.32 66.096" xmlns="http://www.w3.org/2000/svg" xmlns:cc="http://creativecommons.org/ns#" xmlns:dc="http://purl.org/dc/elements/1.1/" xmlns:rdf="http://www.w3.org/1999/02/22-rdf-syntax-ns#">
 <metadata>
  <rdf:RDF>
   <cc:Work rdf:about="">
    <dc:format>image/svg+xml</dc:format>
    <dc:type rdf:resource="http://purl.org/dc/dcmitype/StillImage"/>
    <dc:title/>
   </cc:Work>
  </rdf:RDF>
 </metadata>
 <g transform="translate(-30.666 -35.972)">
  <g transform="translate(-141.67 618.69)" stroke-width=".26458">
   <path d="m178.95-516.82c-2.0547-0.62502-4.1618-2.6203-4.7142-4.4642-1.1655-3.89 0.68184-7.7505 4.2808-8.9459 1.6928-0.56226 4.287-0.37841 5.6011 0.39696 0.52232 0.30818 1.0494 0.56032 1.1714 0.56032 0.43264 0 3.709-1.99 3.8432-2.3343 0.075-0.19245 5.3e-4 -0.60367-0.16546-0.91384-1.0384-1.9404-1.3688-7.1204-0.61573-9.6562 0.22191-0.74725 0.99991-2.2504 1.7289-3.3403 1.0914-1.6318 1.5691-2.0993 2.7054-2.6477 3.2243-1.5562 7.2266-0.96956 10.828 1.5873 0.68538 0.48657 1.2948 0.79901 1.3543 0.69431s0.24511-0.61566 0.41248-1.1355c0.41109-1.2767 1.6741-2.4404 3.8212-3.5207l1.7875-0.89932-3.8258-2.2057-1.2431 0.67658c-0.6837 0.37212-1.3846 0.67658-1.5574 0.67658-0.26673 0-7.3374-4.0131-16.547-9.3918-2.8484-1.6635-10.561-6.1156-13.428-7.751-1.7852-1.0185-2.0505-1.265-2.0505-1.9052 0-0.68739 0.59725-1.0826 9.1547-6.0572 5.0351-2.927 9.3206-5.3218 9.5232-5.3218 0.20269 0 2.2445 1.0892 4.5374 2.4206 4.4093 2.5601 7.5402 4.3682 19.554 11.293 4.0964 2.361 7.5923 4.4665 7.7686 4.679 0.4817 0.58042 0.0993 1.6089-0.72732 1.9563-0.40203 0.16898-1.0168 0.52551-1.3661 0.7923l-0.63516 0.48507 1.872 1.0933c1.0296 0.6013 1.9906 1.0933 2.1357 1.0933 0.52226 0 4.9511-2.7053 5.6261-3.4366 1.5106-1.6366 3.6348-2.2054 5.8063-1.5549 0.91977 0.27557 1.1078 0.23499 2.2942-0.49495 1.7908-1.1019 2.3367-1.2297 3.6642-0.85804 1.3971 0.39118 3.3942 2.3884 4.3596 4.3601 0.50341 1.0281 0.64776 1.7442 0.64776 3.2134 0 2.1994-0.23567 2.5705-2.4298 3.8259-1.2493 0.71477-1.4066 0.90176-1.4066 1.672 0 0.47697-0.30236 1.4359-0.67191 2.1309s-0.63744 1.2874-0.59531 1.3164c0.0421 0.029 0.52226 0.3207 1.067 0.64826l0.99036 0.59558 1.4231-0.81421c0.7827-0.44782 1.5515-0.81421 1.7084-0.81421 0.264 0 2.7429 1.4012 14.731 8.3272 2.4739 1.4292 5.9862 3.4571 7.8052 4.5066 5.5127 3.1805 8.5741 4.9566 9.0721 5.2633 0.31364 0.19319 0.44742 0.54642 0.39687 1.0478-0.07 0.6944-0.8136 1.1867-9.0721 6.0062-4.9477 2.8874-9.2018 5.2557-9.4536 5.2629-0.25179 7e-3 -2.2758-1.0363-4.4979-2.3189-2.2221-1.2826-7.3143-4.2187-11.316-6.5248-4.0018-2.306-9.1215-5.2563-11.377-6.5562-2.2556-1.2999-4.3094-2.5494-4.5641-2.7767-0.78277-0.69862-0.54386-1.3211 0.87342-2.2755l1.3364-0.90001-1.1851-0.69452c-0.65181-0.38199-1.3286-0.69452-1.504-0.69452-0.43482 0-6.6522 3.6334-8.0138 4.6832-0.604 0.4657-1.8126 1.2991-2.6857 1.8521-1.4986 0.94905-1.7039 1.0046-3.6651 0.99205l-2.0776-0.0133 0.1605 1.2099c0.22015 1.6596-0.23059 4.9277-0.89266 6.4723-0.90504 2.1114-1.972 3.2206-4.1185 4.2814-1.9237 0.95074-2.0035 0.96586-4.4292 0.83898-1.9891-0.10405-2.7475-0.2685-3.8942-0.84445-1.7705-0.88928-3.5195-2.1704-4.8832-3.5768-0.57524-0.59327-1.2306-1.0787-1.4564-1.0787s-1.1826 0.44891-2.1262 0.99758c-1.7083 0.99323-1.7166 1.0039-1.9217 2.4474-0.42774 3.0115-2.1735 5.298-4.7782 6.2583-0.95288 0.35132-3.1564 0.40633-4.1515 0.10365zm58.083-26.882c1.3691-0.80576 2.5575-1.5754 2.6409-1.7104 0.0834-0.13494-0.42831-0.53923-1.1371-0.89842l-1.2888-0.65307-2.7333 1.5036c-1.5033 0.82695-2.7319 1.6226-2.7302 1.7681 4e-3 0.30516 1.8989 1.4444 2.4138 1.4508 0.18999 2e-3 1.4656-0.6549 2.8347-1.4607zm-20.775-10.439c0.36381-0.24234 1.4651-0.88364 2.4474-1.4251 0.98227-0.54146 1.7859-1.0329 1.7859-1.092 0-0.19538-3.5958-2.2478-3.938-2.2478-0.45519 0-5.587 2.932-5.587 3.1921 0 0.37286 3.7852 2.3161 4.213 2.1629 0.22944-0.0822 0.71482-0.34773 1.0786-0.59008z" fill="#e4e6f4"/>
   <path d="m178.03-517.46c-1.4621-0.68087-2.8875-2.1377-3.5145-3.592-0.23302-0.54045-0.4053-1.6928-0.40229-2.6908 9e-3 -2.8384 1.5115-5.0927 4.1229-6.1838 1.5624-0.65281 4.1974-0.52981 5.7749 0.26956l1.3313 0.67462 1.7688-0.97611c0.97282-0.53687 1.9474-1.126 2.1656-1.3092 0.42088-0.35322 4.6197-2.8169 7.276-4.2694 1.9223-1.0511 2.246-1.071 3.2792-0.20154 0.91607 0.77082 1.4326 2.2473 1.096 3.1328-0.20724 0.5451-2.7513 2.0878-11.154 6.7636l-2.0163 1.122-0.13974 1.541c-0.44028 4.8555-5.264 7.7328-9.588 5.7192zm80.7-1.9935c-0.43656-0.2695-3.8894-2.2716-7.6729-4.449-18.327-10.547-21.484-12.377-22.159-12.842-1.0989-0.75798-0.92972-1.4047 0.61636-2.356 1.5704-0.96625 1.531-1.0574-1.0093-2.3363-0.90736-0.45681-1.8301-1.0109-2.0505-1.2313-0.54829-0.54829-0.5041-1.7749 0.0831-2.3063 0.93346-0.84477 1.7864-0.55799 5.3472 1.7978 0.79474 0.52579 1.6907 1.0191 1.991 1.0963 0.63111 0.16214 6.0686-2.8704 6.0686-3.3846 0-0.17362-0.95044-0.82194-2.1121-1.4407-2.3822-1.2689-2.8858-2.0072-2.1428-3.1412 0.56512-0.86248 1.57-1.0949 2.3954-0.55406 0.90132 0.59058 1.1315 0.53781 1.3154-0.30156 0.43182-1.9711-1.1976-6.0581-3.3573-8.4212-1.4971-1.638-3.0979-2.4929-4.6682-2.4929-0.92369 0-1.1107-0.0821-1.0387-0.45586 0.0483-0.25073 0.56303-0.73016 1.1439-1.0654 1.0745-0.62017 2.5603-0.68129 4.7838-0.19677 0.64982 0.14161 1.1004 4e-3 2.199-0.67209 1.1391-0.70091 1.5664-0.82542 2.4336-0.7091 1.387 0.18603 3.0271 1.5569 4.2013 3.5116 0.7515 1.251 0.93831 1.8559 1.0201 3.303 0.0558 0.98771-0.0286 2.012-0.19082 2.3151-0.16 0.29897-0.94637 0.9186-1.7475 1.377-0.90815 0.51959-1.5007 1.0502-1.5738 1.4094-0.0645 0.31681-0.18676 1.0104-0.27173 1.5414-0.085 0.53095-0.38948 1.2641-0.6767 1.6292-0.28722 0.36513-0.52221 0.78262-0.52221 0.92774s0.5323 0.5758 1.1829 0.95708l1.1829 0.69322 1.4182-0.80037c0.78-0.44021 1.5605-0.80038 1.7345-0.80038 0.28595 0 8.2397 4.5362 25.346 14.455 3.369 1.9535 6.2583 3.7119 6.4207 3.9076 0.16239 0.19567 0.2259 0.53652 0.14113 0.75743-0.19512 0.50848-17.871 10.779-18.541 10.773-0.27308-2e-3 -0.85369-0.22495-1.2902-0.49445zm-48.931-7.2241c0.55555-2.0871 0.48429-5.803-0.15556-8.112-1.2108-4.3693-3.4562-7.615-7.1903-10.393-2.5196-1.8747-4.2513-2.4525-7.3184-2.4418-2.2801 8e-3 -2.4207-0.0208-1.7702-0.36166 0.38868-0.20365 1.5273-0.43907 2.5302-0.52315 2.3431-0.19643 4.9192 0.58799 7.3123 2.2266 0.93075 0.6373 1.7952 1.0951 1.921 1.0174 0.12581-0.0778 0.30918-0.5701 0.40748-1.0941 0.35385-1.8862 3.726-4.5992 5.726-4.6068 1.2151-5e-3 3.8578 1.5329 5.1435 2.9924 2.7208 3.0887 4.1678 7.7826 3.1893 10.345-0.86686 2.2698-4.627 4.0811-6.9978 3.3708-0.56282-0.16862-1.1388-0.30659-1.2799-0.30659-0.15183 0-0.2473 1.215-0.23388 2.9766 0.0233 3.0584-0.46493 5.326-1.295 6.0149-0.3038 0.25213-0.30196 0.0729 0.0113-1.1041zm-0.39528-25.892-2.2308-1.3015-1.176 0.65726c-0.64679 0.3615-1.3548 0.65727-1.5734 0.65727-0.3644 0-29.42-16.623-31.087-17.785-1.5922-1.1099-1.4185-1.2551 8.1572-6.8212 4.8818-2.8377 9.0945-5.1958 9.3614-5.2404 0.38028-0.0635 18.072 9.9513 30.04 17.005 2.4009 1.415 2.491 2.0232 0.47187 3.1843-0.75912 0.43657-1.3839 0.91282-1.3884 1.0583-5e-3 0.14552 0.82495 0.7332 1.8432 1.306 1.0668 0.60005 1.8501 1.2168 1.8482 1.4552-4e-3 0.47072-1.6163 1.6044-2.2821 1.6044-0.2424 0-1.3696-0.53578-2.5049-1.1906-1.1353-0.65485-2.2104-1.1906-2.389-1.1906-0.34869 0-5.7134 3.1093-5.908 3.4242-0.0642 0.1039 0.77058 0.69377 1.8551 1.3108 1.0845 0.61705 1.9719 1.2811 1.9719 1.4756 0 0.33814-2.1078 1.7455-2.5606 1.7097-0.11961-9e-3 -1.2213-0.60288-2.4483-1.3187z" fill="#cdcfd6"/>
   <path d="m178.27-517.47c-2.0901-0.91009-3.7222-3.1172-3.9913-5.3975-0.61615-5.2199 4.9704-9.0338 9.6653-6.5986l1.3987 0.72548 2.1625-1.2988c6.258-3.7587 10.52-6.1053 11.089-6.1053 1.151 0 2.5181 2.0771 2.2003 3.3432-0.14346 0.57161-2.1676 1.8267-10.097 6.261-1.4709 0.82251-2.7942 1.6472-2.9407 1.8326-0.14654 0.1854-0.3321 1.0083-0.41238 1.8287-0.34339 3.5093-2.9156 5.7779-6.5403 5.7683-0.94589-2e-3 -2.0862-0.16411-2.5341-0.35913zm77.279-3.9614c-2.3283-1.3514-9.234-5.342-15.346-8.868-6.1119-3.526-11.351-6.6479-11.642-6.9375-0.52906-0.52648-0.52902-0.52671 0.16227-1.1062 0.38029-0.3188 1.0846-0.79378 1.5652-1.0555 1.0716-0.58361 0.93022-0.7635-1.7275-2.1985-1.0186-0.55002-1.9396-1.1258-2.0465-1.2795-0.42651-0.61315-0.19953-1.7244 0.43747-2.1418 0.59539-0.39012 0.71978-0.37881 1.7859 0.1624 0.63029 0.31994 1.6222 0.90279 2.2043 1.2952 0.58208 0.39242 1.5533 0.98717 2.1583 1.3217l1.1 0.60817 3.0783-1.7876c1.6931-0.98316 3.0364-1.9133 2.9852-2.067-0.0512-0.15371-1.0357-0.8006-2.1877-1.4375s-2.1848-1.3001-2.2952-1.4736c-0.41051-0.64568-0.19998-1.4998 0.47942-1.9449 0.58984-0.38648 0.80721-0.40301 1.5214-0.11569 1.9431 0.78174 1.8453 0.86686 1.709-1.4874-0.10007-1.7286-0.29642-2.4849-1.058-4.0753-0.51431-1.074-1.444-2.525-2.0659-3.2246-1.3558-1.525-3.5133-2.8233-4.6973-2.8267-1.247-4e-3 -1.1067-0.71007 0.26459-1.3325 1.3973-0.63427 2.0134-0.64364 3.8797-0.059 1.9846 0.62169 4.148 2.8092 5.5139 5.5754 0.93284 1.8892 0.99053 2.1509 0.97854 4.4393-0.0115 2.1961-0.0829 2.5378-0.73749 3.5269-0.39861 0.60234-0.6705 1.1803-0.60419 1.2843 0.0663 0.10404 0.67286 0.48682 1.3479 0.85063l1.2273 0.66145 1.308-0.7276c0.71939-0.40018 1.5297-0.7276 1.8007-0.7276s2.6224 1.2306 5.2254 2.7347c2.603 1.5041 9.4356 5.4468 15.184 8.7617 5.7481 3.3149 10.676 6.2415 10.951 6.5037 0.27488 0.26218 0.43834 0.63682 0.36323 0.83253-0.13836 0.36058-17.923 10.812-18.356 10.787-0.12899-8e-3 -2.1395-1.1194-4.4678-2.4708zm-43.656-13.475c-0.53842-0.247-0.91032-0.69618-1.1561-1.3964-0.19931-0.56771-0.56976-1.2703-0.82321-1.5614-0.72171-0.82874-2.3863-3.8188-2.3863-4.2864 0-0.23188-0.42898-0.94512-0.9533-1.585-0.8078-0.98581-0.92821-1.2971-0.78889-2.0397 0.43894-2.3398 3.228-4.9266 5.2997-4.9154 3.9885 0.0216 8.599 6.0401 8.6098 11.239 6e-3 2.8111-1.8789 4.551-5.1795 4.7816-1.2362 0.0864-2.0855 0.01-2.6221-0.23639zm-2.3812-17.778c-1.0186-0.63134-2.0049-1.1566-2.1916-1.1673-0.18674-0.0107-0.93539 0.28253-1.6637 0.65158l-1.3242 0.671-8.7874-5.0758c-4.833-2.7917-11.979-6.9192-15.879-9.1722-5.7884-3.3437-7.0768-4.1906-7.0115-4.6091 0.0567-0.36298 2.476-1.9049 8.2821-5.2785 10.549-6.1294 9.9511-5.8278 10.74-5.4165 2.4405 1.2731 30.371 17.519 30.766 17.895 0.62882 0.59916 0.44153 0.88484-1.3181 2.0104-0.78431 0.50172-1.4257 0.99786-1.4254 1.1025 2.7e-4 0.10467 0.83379 0.65893 1.8521 1.2317 1.0639 0.59843 1.8506 1.2174 1.8494 1.4552-1e-3 0.2276-0.48151 0.68766-1.0675 1.0223l-1.0655 0.60851-4.7356-2.7331-2.668 1.5238c-4.1979 2.3977-4.0923 2.1816-1.7277 3.5344 1.1032 0.63123 2.0059 1.3011 2.0059 1.4886 0 0.41423-1.7073 1.4606-2.3302 1.4282-0.24634-0.0128-1.2813-0.53987-2.3-1.1712z" fill="#b7bcc9"/>
   <path d="m178.66-517.44c-2.5961-0.97234-4.3015-3.4742-4.2621-6.2525 0.0121-0.85058 0.18939-1.9462 0.39406-2.4347 1.4234-3.3972 5.7492-4.9566 9.0726-3.2705 0.71589 0.36319 1.4079 0.66085 1.5379 0.66146 0.12994 5.3e-4 1.7968-0.93066 3.7042-2.0695 7.08-4.2273 9.3399-5.3998 9.8654-5.1185 0.98328 0.52624 1.4945 1.3619 1.5174 2.4804l0.0226 1.1066-4.7625 2.7215c-2.6194 1.4968-5.5364 3.1775-6.4823 3.7349l-1.7198 1.0134-0.18638 1.4853c-0.33712 2.6867-1.4935 4.5296-3.4771 5.5416-1.3483 0.68786-3.9284 0.88564-5.2239 0.40045zm80.318-2.1314c-0.28704-0.19872-4.0342-2.3805-8.3271-4.8484-19.849-11.411-22.225-12.831-22.225-13.281 0-0.26559 0.56054-0.77263 1.3628-1.2328 0.74955-0.42988 1.3746-0.8962 1.3891-1.0363 0.0145-0.14007-1.0201-0.85176-2.2989-1.5815-2.3873-1.3623-2.9807-2.1121-2.3107-2.9195 0.73348-0.88379 1.3179-0.7427 4.2588 1.0281 1.5922 0.95876 3.093 1.7432 3.3351 1.7432 0.65763 0 6.4749-3.4512 6.3663-3.777-0.0516-0.15467-1.1351-0.87343-2.4079-1.5972-2.1711-1.2347-2.3092-1.365-2.234-2.108 0.044-0.43563 0.31951-0.95001 0.61213-1.1431 0.45752-0.30186 0.69118-0.27019 1.6685 0.22614 1.3433 0.68221 1.6253 0.46299 1.6319-1.2687 0.0171-4.5089-4.0328-10.223-7.6826-10.84-1.2457-0.21047-1.3194-0.50341-0.26396-1.0492 1.0033-0.51883 2.5072-0.51344 4.0567 0.0145 1.6134 0.54973 3.9849 3.0718 5.1893 5.5186 1.4249 2.8948 1.491 6.456 0.14939 8.0504-0.35801 0.42548-0.65093 0.83696-0.65093 0.91442 0 0.0774 0.65424 0.51514 1.4539 0.97264l1.4539 0.83182 3.1256-1.7183 3.2672 1.8687c14.631 8.3682 28.157 16.288 28.322 16.583 0.11951 0.21355 0.0163 0.51334-0.25677 0.74633-0.953 0.8129-17.499 10.264-17.97 10.264-0.27125 0-0.72804-0.16259-1.0151-0.36132zm-42.988-15.659c0-0.08 0.19398-0.52055 0.43106-0.97901 0.33415-0.64618 0.39742-1.2784 0.2814-2.8124-0.19358-2.5597-1.5383-5.3902-3.4862-7.3381-1.5507-1.5508-2.6167-2.1729-4.1799-2.4398l-1.0924-0.18648 0.6382-0.59458c2.6618-2.4798 7.3574 0.13123 9.8828 5.4954 0.6582 1.3981 0.82497 2.1319 0.90193 3.9688 0.0804 1.9185 0.0137 2.3817-0.44821 3.1158-0.71105 1.13-2.9287 2.4705-2.9287 1.7704zm-5.9813-2.9809c-0.50288-0.34021-2.1867-3.6444-2.0051-3.9346 0.0997-0.15926 0.67233-0.54496 1.2726-0.85711 0.92893-0.48309 1.1956-0.52 1.7924-0.24809 0.90235 0.41114 1.7464 1.7819 1.7464 2.8362 0 0.80677-0.22908 1.0319-2.2616 2.2222-0.15247 0.0893-0.3976 0.0809-0.54473-0.0186zm-0.46408-14.609-2.2975-1.3174-1.3083 0.66296c-0.71956 0.36464-1.4294 0.66297-1.5774 0.66297-0.14799 0-6.0753-3.353-13.172-7.4511-7.0965-4.0981-14.093-8.1368-15.549-8.9749-1.7234-0.9925-2.6735-1.7019-2.7253-2.0348-0.0649-0.41775 1.525-1.4427 8.7069-5.6129 4.8325-2.806 8.9759-5.15 9.2076-5.209 0.23167-0.0589 5.1242 2.6124 10.872 5.9362s12.803 7.3996 15.677 9.0572c3.552 2.0486 5.2255 3.1575 5.2255 3.4625 0 0.26406-0.61549 0.81476-1.4957 1.3383-0.82266 0.48927-1.4979 1.0086-1.5005 1.1542-3e-3 0.14552 0.86905 0.7918 1.9371 1.4362l1.9419 1.1716-0.89436 0.74665c-0.4919 0.41065-1.0532 0.74664-1.2474 0.74664s-1.2819-0.53578-2.4172-1.1906c-1.1353-0.65484-2.2174-1.1906-2.4046-1.1906-0.46806 0-6.3545 3.4391-6.3545 3.7125 0 0.28279 1.1464 1.0892 2.5797 1.8146 0.61846 0.313 1.1245 0.72334 1.1245 0.91187s-0.45703 0.59964-1.0156 0.91359l-1.0156 0.57081z" fill="#9b9ca3"/>
   <path d="m179.14-517.47c-1.6814-0.45996-3.0698-1.6265-3.9591-3.3263-2.5987-4.9674 2.329-10.668 7.6841-8.8893 0.73544 0.24427 1.48 0.6162 1.6545 0.8265 0.50525 0.60879 1.0405 0.46413 3.3364-0.90167 6.8237-4.0594 10.132-5.8597 10.768-5.8597 0.51457 0 0.85088 0.23472 1.2321 0.8599 0.64782 1.0625 0.66872 1.8453 0.0633 2.369-0.25466 0.22026-3.2312 1.9762-6.6146 3.902l-6.1516 3.5015-6e-3 1.4968c-0.0161 4.1523-3.9703 7.1256-8.0075 6.0212zm72.545-6.5917c-4.3077-2.501-11.241-6.5118-15.407-8.9129-4.1664-2.4011-7.5773-4.5134-7.5798-4.6941-3e-3 -0.18066 0.65027-0.69804 1.4506-1.1497 0.80036-0.4517 1.4552-0.91052 1.4552-1.0196 0-0.32319-0.82481-0.93611-2.5135-1.8678-0.87313-0.48172-1.7959-1.0544-2.0505-1.2727-0.64897-0.55618-0.57622-1.3329 0.15609-1.6666 0.53829-0.24526 1.0025-0.0545 3.5554 1.4609 1.615 0.95863 3.1527 1.743 3.4171 1.743 0.49002 0 5.7381-2.9257 6.3964-3.5659 0.48518-0.4718 0.24037-0.79424-1.2356-1.6275-2.9276-1.6528-3.2646-1.9383-3.1775-2.6924 0.0699-0.60567 0.20195-0.70873 0.87608-0.68388 0.43656 0.0161 1.1762 0.18931 1.6435 0.38492 0.46739 0.19562 0.94364 0.26152 1.0583 0.14645 0.45447-0.45594 0.18251-4.2396-0.41403-5.7602-1.169-2.9799-3.434-5.6057-5.821-6.7483-1.8547-0.88776-1.8244-0.86186-1.354-1.1594 0.65461-0.41399 2.7074-0.27124 3.9031 0.27143 1.6635 0.75501 3.6046 2.8972 4.7515 5.2437 0.92779 1.8982 0.99508 2.1983 0.99508 4.4377 0 2.2126-0.0573 2.477-0.72761 3.3558-0.40018 0.52466-0.7276 1.0535-0.7276 1.1751s0.72225 0.61823 1.605 1.1035l1.605 0.88236 1.5797-0.842 1.5797-0.84199 2.9668 1.7144c1.6318 0.9429 8.3842 4.8375 15.005 8.6548 12.848 7.407 13.573 7.851 13.367 8.1848-0.27524 0.44535-17.554 10.326-18.03 10.31-0.27306-9e-3 -4.021-2.0631-8.3286-4.5641zm-34.803-12.022c0.63697-2.2623 0.34033-4.3464-1.0101-7.0962-0.50527-1.0289-1.4151-2.4347-2.0218-3.1239-1.1288-1.2824-3.4435-2.8036-4.2728-2.8081-0.57318-3e-3 -0.59595-0.35653-0.0521-0.80793 0.61699-0.51206 2.495-0.40679 3.6919 0.20694 1.2749 0.65376 3.4768 2.9267 4.4245 4.5673 1.9776 3.4234 2.0342 7.8178 0.11697 9.074-0.86909 0.56945-1.0398 0.5671-0.87674-0.0121zm-7.7463-4.035c-0.4654-0.87318-0.77209-1.7075-0.68155-1.854 0.31732-0.51343 1.7813-1.098 2.3761-0.94871 1.0745 0.26969 2.0077 2.361 1.3873 3.1092-0.38397 0.46312-1.6601 1.281-1.9986 1.281-0.13036 0-0.61781-0.71441-1.0832-1.5876zm0.25321-12.984-2.239-1.2863-1.1677 0.65266c-0.64226 0.35896-1.333 0.65266-1.5349 0.65266s-6.1698-3.3542-13.262-7.4537c-7.0921-4.0996-14.055-8.1179-15.474-8.9297-2.5251-1.4451-3.1219-2.1376-2.1603-2.5066 0.23104-0.0887 4.2268-2.3736 8.8795-5.0776 4.7886-2.783 8.6258-4.8525 8.8428-4.7693 0.33393 0.12815 6.0266 3.3976 23.662 13.59 6.7384 3.8943 7.4085 4.3151 7.4055 4.6493-2e-3 0.17136-0.71596 0.72211-1.5875 1.2239-0.87155 0.50177-1.5846 1.062-1.5846 1.245 0 0.18296 0.83344 0.82779 1.8521 1.433 1.0186 0.60517 1.8521 1.157 1.8521 1.2262 0 0.24156-1.1934 1.1192-1.5337 1.1279-0.18869 5e-3 -1.272-0.52697-2.4072-1.1818-1.1353-0.65484-2.2311-1.1887-2.4351-1.1864-0.65438 8e-3 -6.4497 3.571-6.536 4.0188-0.0569 0.29544 0.46408 0.73787 1.6495 1.4008 0.95298 0.53293 1.794 1.0682 1.869 1.1895 0.11809 0.19107-1.4762 1.3717-1.7503 1.2962-0.0556-0.0153-1.1086-0.60666-2.3401-1.3141z" fill="#5968ab"/>
   <path d="m179.14-517.47c-1.6814-0.45996-3.0698-1.6265-3.9591-3.3263-2.5987-4.9674 2.329-10.668 7.6841-8.8893 0.73544 0.24427 1.48 0.6162 1.6545 0.8265 0.50525 0.60879 1.0405 0.46413 3.3364-0.90167 6.8237-4.0594 10.132-5.8597 10.768-5.8597 0.51457 0 0.85088 0.23472 1.2321 0.8599 0.64782 1.0625 0.66872 1.8453 0.0633 2.369-0.25466 0.22026-3.2312 1.9762-6.6146 3.902l-6.1516 3.5015-6e-3 1.4968c-0.0161 4.1523-3.9703 7.1256-8.0075 6.0212zm72.545-6.5917c-4.3077-2.501-11.241-6.5118-15.407-8.9129-4.1664-2.4011-7.5773-4.5134-7.5798-4.6941-3e-3 -0.18066 0.65027-0.69804 1.4506-1.1497 0.80036-0.4517 1.4552-0.91052 1.4552-1.0196 0-0.32319-0.82481-0.93611-2.5135-1.8678-0.87313-0.48172-1.7959-1.0544-2.0505-1.2727-0.64897-0.55618-0.57622-1.3329 0.15609-1.6666 0.53829-0.24526 1.0025-0.0545 3.5554 1.4609 1.615 0.95863 3.154 1.743 3.42 1.743 0.49998 0 5.7521-2.9239 6.3935-3.5593 0.48423-0.47969 0.24217-0.79982-1.2356-1.6341-2.9276-1.6528-3.2646-1.9383-3.1775-2.6924 0.0699-0.60567 0.20195-0.70873 0.87608-0.68388 0.43656 0.0161 1.1762 0.18931 1.6435 0.38492 0.46739 0.19562 0.94364 0.26152 1.0583 0.14645 0.45447-0.45594 0.18251-4.2396-0.41403-5.7602-1.169-2.9799-3.434-5.6057-5.821-6.7483-1.8547-0.88776-1.8244-0.86186-1.354-1.1594 0.65461-0.41399 2.7074-0.27124 3.9031 0.27143 1.6635 0.75501 3.6046 2.8972 4.7515 5.2437 0.92779 1.8982 0.99508 2.1983 0.99508 4.4377 0 2.2126-0.0573 2.477-0.72761 3.3558-0.40018 0.52466-0.7276 1.0535-0.7276 1.1751s0.72225 0.61823 1.605 1.1035l1.605 0.88236 1.5797-0.842 1.5797-0.84199 2.9668 1.7146c4.585 2.6498 19.765 11.408 23.604 13.618 4.0832 2.3506 4.9458 2.9335 4.7677 3.2218-0.27524 0.44535-17.554 10.326-18.03 10.31-0.27306-9e-3 -4.021-2.0631-8.3286-4.5641zm10.708 1.8616c0.99962-0.61445 1.8203-1.2354 1.8237-1.3799 8e-3 -0.35136-2.3462-1.7192-3.2152-1.8678-0.82006-0.14025-4.3948 1.6764-4.3948 2.2334 0 0.33593 3.1285 2.1378 3.7042 2.1335 0.14552-1e-3 1.0824-0.50473 2.0821-1.1192zm-4.8964-3.1194c0.89304-0.59635 1.6237-1.1911 1.6237-1.3216 0-0.42705-2.7581-1.8305-3.6023-1.8331-0.45332-1e-3 -1.127 0.23564-1.497 0.52669-0.36999 0.29104-0.75895 0.52916-0.86434 0.52916-0.1054 0-0.6024 0.25388-1.1044 0.56416-0.75834 0.46868-0.85319 0.62316-0.5604 0.91274 0.7344 0.72637 3.2804 1.9432 3.822 1.8266 0.3075-0.0662 1.2898-0.6083 2.1828-1.2046zm10.784-0.29938c1.074-0.61104 1.9526-1.2027 1.9526-1.3148 0-0.33825-2.8897-2.0772-3.517-2.1164-0.72521-0.0453-4.4797 2.1158-4.3503 2.5041 0.11539 0.34616 3.0948 2.0305 3.5995 2.0349 0.19935 2e-3 1.2411-0.49679 2.3151-1.1078zm-16.14-2.6458c1.074-0.61103 1.946-1.1766 1.9379-1.2568-0.0263-0.26095-3.0894-2.1302-3.4907-2.1302-0.38245 0-4.0901 1.9387-4.5167 2.3618-0.25743 0.25528 2.9072 2.1136 3.622 2.1269 0.27211 5e-3 1.3734-0.49071 2.4474-1.1018zm10.794-0.23378c1.1014-0.5941 2.0695-1.1884 2.1512-1.3207 0.17244-0.27901-2.9894-2.3554-3.5923-2.3592-0.62002-4e-3 -4.5254 2.4034-4.4187 2.7236 0.10806 0.32421 3.0811 2.0285 3.5468 2.0332 0.17073 2e-3 1.2116-0.48293 2.313-1.077zm11.034-0.47074c1.0741-0.56196 1.9854-1.187 2.0252-1.3891s-0.28214-0.5237-0.71541-0.71482c-0.43326-0.19113-1.2225-0.64252-1.7538-1.0031l-0.96606-0.65558-2.0199 1.1397c-1.111 0.62685-2.0546 1.3198-2.097 1.5398-0.0809 0.42011 2.3647 2.0381 3.1456 2.0812 0.23559 0.013 1.3072-0.43617 2.3812-0.99813zm-27.585-1.8964c0.82073-0.44079 1.7767-1.0193 2.1244-1.2857l0.63213-0.48424-1.8141-0.96328c-0.99775-0.52981-1.9834-0.96329-2.1903-0.96329-0.57803 0-4.2611 2.2138-4.1818 2.5135 0.0385 0.14553 0.56797 0.50675 1.1766 0.80273 0.60866 0.29598 1.2515 0.68293 1.4284 0.8599 0.50534 0.50534 1.215 0.38482 2.8247-0.47969zm11.414-0.60787c1.0914-0.62004 1.9844-1.3007 1.9844-1.5127 0-0.21403-0.7871-0.76444-1.7706-1.2381-1.6877-0.81288-1.8137-0.83481-2.691-0.46825-0.50622 0.21151-1.4852 0.76576-2.1756 1.2317-1.182 0.79773-1.2256 0.86806-0.74862 1.207 1.4042 0.99783 2.9167 1.915 3.1524 1.9115 0.14552-2e-3 1.1576-0.51118 2.249-1.1312zm11.517-0.75216c0.92684-0.60936 1.6313-1.1951 1.5655-1.3015-0.3079-0.4982-3.5913-2.0651-4.0169-1.9169-0.73402 0.25558-4.0384 2.3066-4.0384 2.5066 0 0.099 0.74414 0.60386 1.6536 1.122 2.0122 1.1462 2.5366 1.1018 4.8362-0.41012zm-27.789-1.7568c1.3056-0.69512 1.8521-1.1357 1.8521-1.493 0-0.64861-2.096-1.9499-3.175-1.9711-0.92878-0.0183-4.2333 1.8108-4.2333 2.3432 0 0.3447 2.9043 2.1304 3.4396 2.1148 0.14552-4e-3 1.098-0.45144 2.1167-0.99379zm10.786-0.31545c0.76178-0.43676 1.6674-1.0137 2.0125-1.2822l0.62747-0.48807-1.7288-0.96679c-0.95084-0.53174-1.9357-0.9668-2.1885-0.9668-0.48633 0-4.3403 2.1362-4.3458 2.4088-7e-3 0.32801 3.0596 2.0891 3.6374 2.0891 0.3304 0 1.224-0.35734 1.9858-0.79409zm11.622-0.82377c0.99101-0.59878 1.8018-1.1826 1.8018-1.2974s-0.85273-0.64186-1.895-1.1713l-1.895-0.96269-2.0076 1.1674c-1.1042 0.64205-2.0076 1.3083-2.0076 1.4804 0 0.45662 2.5141 1.8106 3.4237 1.8438 0.48099 0.0176 1.4655-0.38707 2.5797-1.0603zm-27.105-2.1674c0.9103-0.58446 1.6551-1.1511 1.6551-1.2593 0-0.37953-3.0463-1.9113-3.7607-1.891-0.39715 0.0113-1.2335 0.35601-1.8585 0.76604-0.62502 0.41004-1.3655 0.87309-1.6454 1.029-0.86259 0.48037-0.75057 0.84595 0.43602 1.423 0.62705 0.30494 1.4378 0.72774 1.8016 0.93954 0.81646 0.47534 1.2771 0.33773 3.372-1.0073zm10.273 0.0406c1.855-0.98657 2.5366-1.5293 2.3336-1.8578-0.18035-0.29182-1.8287-1.3156-2.7843-1.7292-0.58405-0.25283-0.89119-0.20256-1.9082 0.31232-1.7843 0.90334-3.0843 1.741-3.0843 1.9876 0 0.34777 2.9078 2.048 3.591 2.0997 0.15606 0.0118 0.9895-0.35387 1.8521-0.81265zm11.379-0.64252c1.916-1.0715 2.1348-1.3055 1.7052-1.8232-0.52451-0.63199-2.9654-1.7762-3.4942-1.638-0.86504 0.22622-3.9109 2.1435-3.9157 2.4648-6e-3 0.41503 2.6233 1.9104 3.392 1.9289 0.34015 8e-3 1.3809-0.41149 2.3127-0.93261zm-16.016-2.6475c1.1574-0.66758 2.1043-1.3145 2.1043-1.4375 0-0.30199-3.4369-2.1112-4.0106-2.1112-0.25084 0-0.52572 0.11271-0.61086 0.25046-0.0851 0.13775-0.86606 0.64149-1.7354 1.1194s-1.5806 1.017-1.5806 1.198c0 0.18096 0.38695 0.5275 0.8599 0.77009 0.47294 0.2426 1.1438 0.66237 1.4909 0.93284 0.34704 0.27046 0.79908 0.49175 1.0045 0.49175 0.20544 0 1.3205-0.5462 2.4779-1.2138zm10.174 0.0722c3.1086-1.7286 3.323-2.0166 1.9182-2.5767-0.47294-0.18858-1.1759-0.56021-1.5622-0.82585-0.72908-0.50139-1.6844-0.63768-1.9101-0.27251-0.0715 0.11575-0.90521 0.59997-1.8526 1.076-1.0018 0.50341-1.6687 0.99655-1.5939 1.1786 0.19478 0.47402 2.8103 2.0161 3.4131 2.0123 0.29104-2e-3 1.0054-0.26818 1.5875-0.59185zm-5.3473-2.8654c1.3136-0.66903 2.8337-1.7887 2.8337-2.0873 0-0.29794-2.3703-1.5883-3.2378-1.7626-0.54584-0.10967-1.1812 0.13061-2.5797 0.97558-1.0205 0.61659-1.8555 1.2103-1.8555 1.3193 0 0.1925 1.4421 1.2358 2.5136 1.8184 0.75537 0.41076 1.0723 0.37485 2.3256-0.2635zm-30.409 7.2481c0.63697-2.2623 0.34033-4.3464-1.0101-7.0962-0.50527-1.0289-1.4151-2.4347-2.0218-3.1239-1.1288-1.2824-3.4435-2.8036-4.2728-2.8081-0.57318-3e-3 -0.59595-0.35653-0.0521-0.80793 0.61699-0.51206 2.495-0.40679 3.6919 0.20694 1.2749 0.65376 3.4768 2.9267 4.4245 4.5673 1.9776 3.4234 2.0342 7.8178 0.11697 9.074-0.86909 0.56945-1.0398 0.5671-0.87674-0.0121zm-7.7463-4.035c-0.4654-0.87318-0.77209-1.7075-0.68155-1.854 0.31732-0.51343 1.7813-1.098 2.3761-0.94871 1.0745 0.26969 2.0077 2.361 1.3873 3.1092-0.38397 0.46312-1.6601 1.281-1.9986 1.281-0.13036 0-0.61781-0.71441-1.0832-1.5876zm0.25321-12.984-2.239-1.2863-1.1677 0.65266c-0.64226 0.35896-1.333 0.65266-1.5349 0.65266s-6.1698-3.3542-13.262-7.4537c-7.0921-4.0996-14.055-8.1179-15.474-8.9297-1.4704-0.8415-2.5777-1.6466-2.5759-1.8728 2e-3 -0.21828 0.6265-0.73892 1.3884-1.157 0.76188-0.41805 4.756-2.72 8.8758-5.1154 4.226-2.4571 7.6576-4.2912 7.8738-4.2082 0.33381 0.1281 6.0272 3.398 23.662 13.589 6.7384 3.8943 7.4085 4.3151 7.4055 4.6493-2e-3 0.17136-0.71596 0.72211-1.5875 1.2239-0.87155 0.50177-1.5846 1.062-1.5846 1.245 0 0.18296 0.83344 0.82779 1.8521 1.433 1.0186 0.60517 1.8521 1.157 1.8521 1.2262 0 0.24156-1.1934 1.1192-1.5337 1.1279-0.18869 5e-3 -1.272-0.52697-2.4072-1.1818-1.1353-0.65484-2.2311-1.1887-2.4351-1.1864-0.65438 8e-3 -6.4497 3.571-6.536 4.0188-0.0569 0.29544 0.46408 0.73787 1.6495 1.4008 0.95298 0.53293 1.794 1.0682 1.869 1.1895 0.11809 0.19107-1.4762 1.3717-1.7503 1.2962-0.0556-0.0153-1.1086-0.60666-2.3401-1.3141zm-3.7695-2.0638c0.39429-0.27246 1.2894-0.81736 1.9892-1.2109 1.4953-0.84093 1.4349-1.0102-0.81273-2.2787l-1.4818-0.83625-1.1418 0.55471c-1.9211 0.93334-3.3001 1.8974-3.1902 2.2303 0.13474 0.40826 2.827 1.9798 3.4466 2.0118 0.26056 0.0135 0.79634-0.19842 1.1906-0.47087zm-4.7194-3.2448c1.9409-1.0174 2.5876-1.6603 2.1728-2.1602-0.16159-0.1947-0.92994-0.68682-1.7074-1.0936l-1.4136-0.73959-1.1733 0.59826c-0.64534 0.32905-1.6286 0.88549-2.185 1.2365-0.85425 0.53896-0.95971 0.70083-0.67785 1.0405 0.25049 0.30181 2.9217 1.8498 3.3393 1.9351 0.0343 7e-3 0.7746-0.36067 1.6452-0.81704zm11.088-0.50084c0.82073-0.44079 1.7743-1.0175 2.119-1.2816l0.62677-0.48021-1.6829-1.0996c-0.9256-0.60478-1.8188-1.0996-1.9849-1.0996-0.51515 0-4.3326 2.4448-4.3326 2.7748 0 0.29951 2.9776 1.9877 3.5059 1.9877 0.14109 0 0.92804-0.36065 1.7488-0.80144zm-15.461-2.9257c1.1026-0.59473 2.0047-1.1653 2.0047-1.268 0-0.24181-3.256-2.1486-3.6689-2.1486-0.37024 0-3.1354 1.4101-3.8055 1.9407-0.25466 0.20162-0.46302 0.47359-0.46302 0.60437 0 0.36597 2.7045 1.9338 3.3531 1.9439 0.31625 5e-3 1.4771-0.47767 2.5797-1.0724zm10.112 0.0843c0.60256-0.39753 1.4756-0.93128 1.9402-1.1861 0.46453-0.25482 0.79523-0.61201 0.73486-0.79375-0.12334-0.37139-2.9851-2.0502-3.4948-2.0502-0.70278 0-4.3768 2.1965-4.3768 2.6167 0 0.26359 3.1948 2.0877 3.7042 2.115 0.21829 0.0117 0.88989-0.30402 1.4924-0.70155zm12.059-1.0346c0.97756-0.55611 1.7418-1.1293 1.6984-1.2738-0.14206-0.4723-3.4146-2.2069-3.8502-2.0408-0.87258 0.33277-3.9912 2.2258-3.9912 2.4227 0 0.19406 1.3474 1.1787 2.5135 1.8368 0.75673 0.42708 1.6067 0.20579 3.6295-0.9449zm-27.436-2.0033c1.085-0.61847 1.9355-1.2404 1.89-1.382-0.13342-0.41503-2.9009-1.9699-3.5262-1.9812-0.70048-0.0126-4.1901 1.9295-4.1901 2.3319 0 0.36377 2.7464 2.0925 3.382 2.1288 0.25936 0.0148 1.3593-0.4791 2.4443-1.0976zm11.173-0.52506c0.9095-0.57405 1.6536-1.1825 1.6536-1.3522 0-0.31735-2.9336-2.0254-3.4787-2.0254-0.4934 0-4.1874 2.2235-4.191 2.5226-6e-3 0.47768 3.2536 2.2242 3.8332 2.054 0.29104-0.0854 1.2733-0.62503 2.1828-1.1991zm9.8001 0.34045c0.53991-0.28344 1.497-0.86399 2.1269-1.2901l1.1452-0.77478-0.74837-0.52742c-0.41161-0.29008-1.2717-0.79233-1.9113-1.1161-0.9814-0.49681-1.2704-0.54012-1.8521-0.27753-1.0698 0.48295-3.4673 2.1226-3.4673 2.3712 0 0.22568 2.1804 1.6834 2.9104 1.9457 0.64452 0.23162 0.76833 0.20881 1.7965-0.33094zm-26.102-2.8297c1.1441-0.6756 2.0802-1.2656 2.0802-1.3111 0-0.0455-0.83205-0.57706-1.849-1.1812l-1.849-1.0985-0.99527 0.53086c-2.5881 1.3805-3.24 1.7966-3.242 2.0695-3e-3 0.40902 2.7275 2.1744 3.4077 2.2032 0.20197 9e-3 1.3033-0.5372 2.4474-1.2128zm10.818-0.26257c1.1608-0.67448 2.1098-1.3591 2.1089-1.5214-2e-3 -0.285-0.66766-0.73114-2.6687-1.7876l-0.95059-0.50186-2.0921 1.1567c-1.1507 0.6362-2.0921 1.3213-2.0921 1.5224s0.51763 0.63674 1.1503 0.96803 1.4033 0.77956 1.7125 0.99615c0.30923 0.21659 0.59801 0.3938 0.64173 0.3938 0.0437 0 1.0293-0.55186 2.1901-1.2263zm11.447-0.67577c0.98773-0.59456 1.7561-1.2003 1.7075-1.3462-0.0486-0.14582-0.87094-0.69264-1.8274-1.2152l-1.739-0.95003-1.4237 0.76403c-2.0173 1.0826-2.9196 1.7492-2.8105 2.0764 0.1561 0.46829 3.4272 2.0787 3.8782 1.9093 0.23049-0.0866 1.2272-0.64386 2.2149-1.2384zm-27.963-1.7411c0.56754-0.40303 1.3687-0.88099 1.7803-1.0621 0.41162-0.18114 0.70374-0.4633 0.64916-0.62703-0.0546-0.16373-0.87946-0.72393-1.8331-1.2449l-1.7339-0.94721-1.6934 0.88938c-2.2757 1.1952-2.7366 1.6049-2.297 2.0417 0.62945 0.62546 2.7154 1.6435 3.4081 1.6633 0.37835 0.0108 1.1522-0.3101 1.7198-0.71313zm11.002-0.37285c0.77365-0.46258 1.6745-1.0011 2.002-1.1967s0.59531-0.44755 0.59531-0.55984c0-0.30542-3.1314-1.9003-3.731-1.9003-0.58598 0-2.6825 1.04-3.6643 1.8177-0.55917 0.44294-0.59924 0.57288-0.29114 0.94411 0.38146 0.45964 2.847 1.7278 3.3694 1.733 0.17224 2e-3 0.94614-0.37535 1.7198-0.83793zm11.643-0.7768c0.99101-0.59878 1.8018-1.186 1.8018-1.3049 0-0.41214-2.9908-2.1043-3.7192-2.1043-0.46847 0-4.2011 2.241-4.2098 2.5275-0.0105 0.34483 3.1088 1.9502 3.8121 1.9619 0.28229 5e-3 1.3241-0.48139 2.3151-1.0802zm-16.326-2.5214c0.72566-0.48828 1.4571-0.88779 1.6253-0.88779s0.37168-0.17126 0.452-0.38059c0.10046-0.2618-0.38906-0.67472-1.5683-1.3229-0.94289-0.51827-1.8787-0.94232-2.0796-0.94232-0.55287 0-4.2467 2.2499-4.2467 2.5866 0 0.47935 3.3684 2.1698 3.9688 1.9917 0.29104-0.0863 1.1229-0.55648 1.8486-1.0448zm9.7775 0.46038c0.0813-0.13163 0.79293-0.60335 1.5813-1.0483 0.78836-0.44492 1.5053-0.92532 1.5932-1.0676 0.17141-0.27736-2.8476-2.1642-3.5381-2.2112-0.47307-0.0322-4.251 2.1629-4.251 2.47 0 0.11096 0.68461 0.62486 1.5214 1.142 1.4683 0.90742 2.7861 1.2121 3.0932 0.71507zm-5.2189-3.1268c0.55064-0.25066 1.4774-0.80941 2.0595-1.2417 0.58208-0.43225 1.1092-0.8237 1.1713-0.86989 0.18284-0.13593-0.80384-0.79082-2.3116-1.5343l-1.4049-0.69271-2.1009 1.2317c-1.1555 0.67741-2.1009 1.3099-2.1009 1.4056 0 0.23573 2.9607 2.119 3.3645 2.1402 0.17697 9e-3 0.77228-0.18825 1.3229-0.43892z" fill="#e3334a"/>
   <path d="m251.69-524.06c-4.3077-2.501-11.241-6.5118-15.407-8.9129-4.1664-2.4011-7.5773-4.5134-7.5798-4.6941-3e-3 -0.18066 0.65027-0.69804 1.4506-1.1497 0.80036-0.4517 1.4552-0.91052 1.4552-1.0196 0-0.32319-0.82481-0.93611-2.5135-1.8678-0.87313-0.48172-1.7959-1.0544-2.0505-1.2727-0.64897-0.55618-0.57622-1.3329 0.15609-1.6666 0.53829-0.24526 1.0025-0.0545 3.5554 1.4609 1.615 0.95863 3.154 1.743 3.42 1.743 0.49998 0 5.7521-2.9239 6.3935-3.5593 0.48423-0.47969 0.24217-0.79982-1.2356-1.6341-2.9276-1.6528-3.2646-1.9383-3.1775-2.6924 0.0699-0.60567 0.20195-0.70873 0.87608-0.68388 0.43656 0.0161 1.1762 0.18931 1.6435 0.38492 0.46739 0.19562 0.94364 0.26152 1.0583 0.14645 0.45447-0.45594 0.18251-4.2396-0.41403-5.7602-1.169-2.9799-3.434-5.6057-5.821-6.7483-1.8547-0.88776-1.8244-0.86186-1.354-1.1594 0.65461-0.41399 2.7074-0.27124 3.9031 0.27143 1.6635 0.75501 3.6046 2.8972 4.7515 5.2437 0.92779 1.8982 0.99508 2.1983 0.99508 4.4377 0 2.2126-0.0573 2.477-0.72761 3.3558-0.40018 0.52466-0.7276 1.0535-0.7276 1.1751s0.72225 0.61823 1.605 1.1035l1.605 0.88236 1.5797-0.842 1.5797-0.84199 2.9668 1.7146c4.585 2.6498 19.765 11.408 23.604 13.618 4.0832 2.3506 4.9458 2.9335 4.7677 3.2218-0.27524 0.44535-17.554 10.326-18.03 10.31-0.27306-9e-3 -4.021-2.0631-8.3286-4.5641zm10.708 1.8616c0.99962-0.61445 1.8203-1.2354 1.8237-1.3799 8e-3 -0.35136-2.3462-1.7192-3.2152-1.8678-0.82006-0.14025-4.3948 1.6764-4.3948 2.2334 0 0.33593 3.1285 2.1378 3.7042 2.1335 0.14552-1e-3 1.0824-0.50473 2.0821-1.1192zm-4.8964-3.1194c0.89304-0.59635 1.6237-1.1911 1.6237-1.3216 0-0.42705-2.7581-1.8305-3.6023-1.8331-0.45332-1e-3 -1.127 0.23564-1.497 0.52669-0.36999 0.29104-0.75895 0.52916-0.86434 0.52916-0.1054 0-0.6024 0.25388-1.1044 0.56416-0.75834 0.46868-0.85319 0.62316-0.5604 0.91274 0.7344 0.72637 3.2804 1.9432 3.822 1.8266 0.3075-0.0662 1.2898-0.6083 2.1828-1.2046zm10.784-0.29938c1.074-0.61104 1.9526-1.2027 1.9526-1.3148 0-0.33825-2.8897-2.0772-3.517-2.1164-0.72521-0.0453-4.4797 2.1158-4.3503 2.5041 0.11539 0.34616 3.0948 2.0305 3.5995 2.0349 0.19935 2e-3 1.2411-0.49679 2.3151-1.1078zm-16.14-2.6458c1.074-0.61103 1.946-1.1766 1.9379-1.2568-0.0263-0.26095-3.0894-2.1302-3.4907-2.1302-0.38245 0-4.0901 1.9387-4.5167 2.3618-0.25743 0.25528 2.9072 2.1136 3.622 2.1269 0.27211 5e-3 1.3734-0.49071 2.4474-1.1018zm10.794-0.23378c1.1014-0.5941 2.0695-1.1884 2.1512-1.3207 0.17244-0.27901-2.9894-2.3554-3.5923-2.3592-0.62002-4e-3 -4.5254 2.4034-4.4187 2.7236 0.10806 0.32421 3.0811 2.0285 3.5468 2.0332 0.17073 2e-3 1.2116-0.48293 2.313-1.077zm11.034-0.47074c1.0741-0.56196 1.9854-1.187 2.0252-1.3891s-0.28214-0.5237-0.71541-0.71482c-0.43326-0.19113-1.2225-0.64252-1.7538-1.0031l-0.96606-0.65558-2.0199 1.1397c-1.111 0.62685-2.0546 1.3198-2.097 1.5398-0.0809 0.42011 2.3647 2.0381 3.1456 2.0812 0.23559 0.013 1.3072-0.43617 2.3812-0.99813zm-27.585-1.8964c0.82073-0.44079 1.7767-1.0193 2.1244-1.2857l0.63213-0.48424-1.8141-0.96328c-0.99775-0.52981-1.9834-0.96329-2.1903-0.96329-0.57803 0-4.2611 2.2138-4.1818 2.5135 0.0385 0.14553 0.56797 0.50675 1.1766 0.80273 0.60866 0.29598 1.2515 0.68293 1.4284 0.8599 0.50534 0.50534 1.215 0.38482 2.8247-0.47969zm11.414-0.60787c1.0914-0.62004 1.9844-1.3007 1.9844-1.5127 0-0.21403-0.7871-0.76444-1.7706-1.2381-1.6877-0.81288-1.8137-0.83481-2.691-0.46825-0.50622 0.21151-1.4852 0.76576-2.1756 1.2317-1.182 0.79773-1.2256 0.86806-0.74862 1.207 1.4042 0.99783 2.9167 1.915 3.1524 1.9115 0.14552-2e-3 1.1576-0.51118 2.249-1.1312zm11.517-0.75216c0.92684-0.60936 1.6313-1.1951 1.5655-1.3015-0.3079-0.4982-3.5913-2.0651-4.0169-1.9169-0.73402 0.25558-4.0384 2.3066-4.0384 2.5066 0 0.099 0.74414 0.60386 1.6536 1.122 2.0122 1.1462 2.5366 1.1018 4.8362-0.41012zm-27.789-1.7568c1.3056-0.69512 1.8521-1.1357 1.8521-1.493 0-0.64861-2.096-1.9499-3.175-1.9711-0.92878-0.0183-4.2333 1.8108-4.2333 2.3432 0 0.3447 2.9043 2.1304 3.4396 2.1148 0.14552-4e-3 1.098-0.45144 2.1167-0.99379zm10.786-0.31545c0.76178-0.43676 1.6674-1.0137 2.0125-1.2822l0.62747-0.48807-1.7288-0.96679c-0.95084-0.53174-1.9357-0.9668-2.1885-0.9668-0.48633 0-4.3403 2.1362-4.3458 2.4088-7e-3 0.32801 3.0596 2.0891 3.6374 2.0891 0.3304 0 1.224-0.35734 1.9858-0.79409zm11.622-0.82377c0.99101-0.59878 1.8018-1.1826 1.8018-1.2974s-0.85273-0.64186-1.895-1.1713l-1.895-0.96269-2.0076 1.1674c-1.1042 0.64205-2.0076 1.3083-2.0076 1.4804 0 0.45662 2.5141 1.8106 3.4237 1.8438 0.48099 0.0176 1.4655-0.38707 2.5797-1.0603zm-27.105-2.1674c0.9103-0.58446 1.6551-1.1511 1.6551-1.2593 0-0.37953-3.0463-1.9113-3.7607-1.891-0.39715 0.0113-1.2335 0.35601-1.8585 0.76604-0.62502 0.41004-1.3655 0.87309-1.6454 1.029-0.86259 0.48037-0.75057 0.84595 0.43602 1.423 0.62705 0.30494 1.4378 0.72774 1.8016 0.93954 0.81646 0.47534 1.2771 0.33773 3.372-1.0073zm10.273 0.0406c1.855-0.98657 2.5366-1.5293 2.3336-1.8578-0.18035-0.29182-1.8287-1.3156-2.7843-1.7292-0.58405-0.25283-0.89119-0.20256-1.9082 0.31232-1.7843 0.90334-3.0843 1.741-3.0843 1.9876 0 0.34777 2.9078 2.048 3.591 2.0997 0.15606 0.0118 0.9895-0.35387 1.8521-0.81265zm11.379-0.64252c1.916-1.0715 2.1348-1.3055 1.7052-1.8232-0.52451-0.63199-2.9654-1.7762-3.4942-1.638-0.86504 0.22622-3.9109 2.1435-3.9157 2.4648-6e-3 0.41503 2.6233 1.9104 3.392 1.9289 0.34015 8e-3 1.3809-0.41149 2.3127-0.93261zm-16.016-2.6475c1.1574-0.66758 2.1043-1.3145 2.1043-1.4375 0-0.30199-3.4369-2.1112-4.0106-2.1112-0.25084 0-0.52572 0.11271-0.61086 0.25046-0.0851 0.13775-0.86606 0.64149-1.7354 1.1194s-1.5806 1.017-1.5806 1.198c0 0.18096 0.38695 0.5275 0.8599 0.77009 0.47294 0.2426 1.1438 0.66237 1.4909 0.93284 0.34704 0.27046 0.79908 0.49175 1.0045 0.49175 0.20544 0 1.3205-0.5462 2.4779-1.2138zm10.174 0.0722c3.1086-1.7286 3.323-2.0166 1.9182-2.5767-0.47294-0.18858-1.1759-0.56021-1.5622-0.82585-0.72908-0.50139-1.6844-0.63768-1.9101-0.27251-0.0715 0.11575-0.90521 0.59997-1.8526 1.076-1.0018 0.50341-1.6687 0.99655-1.5939 1.1786 0.19478 0.47402 2.8103 2.0161 3.4131 2.0123 0.29104-2e-3 1.0054-0.26818 1.5875-0.59185zm-5.3473-2.8654c1.3136-0.66903 2.8337-1.7887 2.8337-2.0873 0-0.29794-2.3703-1.5883-3.2378-1.7626-0.54584-0.10967-1.1812 0.13061-2.5797 0.97558-1.0205 0.61659-1.8555 1.2103-1.8555 1.3193 0 0.1925 1.4421 1.2358 2.5136 1.8184 0.75537 0.41076 1.0723 0.37485 2.3256-0.2635zm-60.234 17.678c-0.0846-0.33705-0.45449-1.0559-0.82198-1.5974s-0.66816-1.0242-0.66816-1.0725c0-0.0484 1.518-0.97997 3.3734-2.0703 10.124-5.949 9.9858-5.8939 10.917-4.3668 0.64782 1.0625 0.66874 1.8456 0.0632 2.368-0.33748 0.2912-8.6795 5.1193-12.539 7.2575-0.0936 0.0519-0.23942-0.18149-0.32402-0.51854zm29.825-10.43c0.63697-2.2623 0.34033-4.3464-1.0101-7.0962-0.50527-1.0289-1.4151-2.4347-2.0218-3.1239-1.1288-1.2824-3.4435-2.8036-4.2728-2.8081-0.57318-3e-3 -0.59595-0.35653-0.0521-0.80793 0.61699-0.51206 2.495-0.40679 3.6919 0.20694 1.2749 0.65376 3.4768 2.9267 4.4245 4.5673 1.9776 3.4234 2.0342 7.8178 0.11697 9.074-0.86909 0.56945-1.0398 0.5671-0.87674-0.0121zm-7.7463-4.035c-0.4654-0.87318-0.77209-1.7075-0.68155-1.854 0.31732-0.51343 1.7813-1.098 2.3761-0.94871 1.0745 0.26969 2.0077 2.361 1.3873 3.1092-0.38397 0.46312-1.6601 1.281-1.9986 1.281-0.13036 0-0.61781-0.71441-1.0832-1.5876zm0.25321-12.984-2.239-1.2863-1.1677 0.65266c-0.64226 0.35896-1.333 0.65266-1.5349 0.65266s-6.1698-3.3542-13.262-7.4537c-7.0921-4.0996-14.055-8.1179-15.474-8.9297-1.4704-0.8415-2.5777-1.6466-2.5759-1.8728 2e-3 -0.21828 0.6265-0.73892 1.3884-1.157 0.76188-0.41805 4.756-2.72 8.8758-5.1154 4.226-2.4571 7.6576-4.2912 7.8738-4.2082 0.33381 0.1281 6.0272 3.398 23.662 13.589 6.7384 3.8943 7.4085 4.3151 7.4055 4.6493-2e-3 0.17136-0.71596 0.72211-1.5875 1.2239-0.87155 0.50177-1.5846 1.062-1.5846 1.245 0 0.18296 0.83344 0.82779 1.8521 1.433 1.0186 0.60517 1.8521 1.157 1.8521 1.2262 0 0.24156-1.1934 1.1192-1.5337 1.1279-0.18869 5e-3 -1.272-0.52697-2.4072-1.1818-1.1353-0.65484-2.2311-1.1887-2.4351-1.1864-0.65438 8e-3 -6.4497 3.571-6.536 4.0188-0.0569 0.29544 0.46408 0.73787 1.6495 1.4008 0.95298 0.53293 1.794 1.0682 1.869 1.1895 0.11809 0.19107-1.4762 1.3717-1.7503 1.2962-0.0556-0.0153-1.1086-0.60666-2.3401-1.3141zm-3.7695-2.0638c0.39429-0.27246 1.2894-0.81736 1.9892-1.2109 1.4953-0.84093 1.4349-1.0102-0.81273-2.2787l-1.4818-0.83625-1.1418 0.55471c-1.9211 0.93334-3.3001 1.8974-3.1902 2.2303 0.13474 0.40826 2.827 1.9798 3.4466 2.0118 0.26056 0.0135 0.79634-0.19842 1.1906-0.47087zm-4.7194-3.2448c1.9409-1.0174 2.5876-1.6603 2.1728-2.1602-0.16159-0.1947-0.92994-0.68682-1.7074-1.0936l-1.4136-0.73959-1.1733 0.59826c-0.64534 0.32905-1.6286 0.88549-2.185 1.2365-0.85425 0.53896-0.95971 0.70083-0.67785 1.0405 0.25049 0.30181 2.9217 1.8498 3.3393 1.9351 0.0343 7e-3 0.7746-0.36067 1.6452-0.81704zm11.088-0.50084c0.82073-0.44079 1.7743-1.0175 2.119-1.2816l0.62677-0.48021-1.6829-1.0996c-0.9256-0.60478-1.8188-1.0996-1.9849-1.0996-0.51515 0-4.3326 2.4448-4.3326 2.7748 0 0.29951 2.9776 1.9877 3.5059 1.9877 0.14109 0 0.92804-0.36065 1.7488-0.80144zm-15.461-2.9257c1.1026-0.59473 2.0047-1.1653 2.0047-1.268 0-0.24181-3.256-2.1486-3.6689-2.1486-0.37024 0-3.1354 1.4101-3.8055 1.9407-0.25466 0.20162-0.46302 0.47359-0.46302 0.60437 0 0.36597 2.7045 1.9338 3.3531 1.9439 0.31625 5e-3 1.4771-0.47767 2.5797-1.0724zm10.112 0.0843c0.60256-0.39753 1.4756-0.93128 1.9402-1.1861 0.46453-0.25482 0.79523-0.61201 0.73486-0.79375-0.12334-0.37139-2.9851-2.0502-3.4948-2.0502-0.70278 0-4.3768 2.1965-4.3768 2.6167 0 0.26359 3.1948 2.0877 3.7042 2.115 0.21829 0.0117 0.88989-0.30402 1.4924-0.70155zm12.059-1.0346c0.97756-0.55611 1.7418-1.1293 1.6984-1.2738-0.14206-0.4723-3.4146-2.2069-3.8502-2.0408-0.87258 0.33277-3.9912 2.2258-3.9912 2.4227 0 0.19406 1.3474 1.1787 2.5135 1.8368 0.75673 0.42708 1.6067 0.20579 3.6295-0.9449zm-27.436-2.0033c1.085-0.61847 1.9355-1.2404 1.89-1.382-0.13342-0.41503-2.9009-1.9699-3.5262-1.9812-0.70048-0.0126-4.1901 1.9295-4.1901 2.3319 0 0.36377 2.7464 2.0925 3.382 2.1288 0.25936 0.0148 1.3593-0.4791 2.4443-1.0976zm11.173-0.52506c0.9095-0.57405 1.6536-1.1825 1.6536-1.3522 0-0.31735-2.9336-2.0254-3.4787-2.0254-0.4934 0-4.1874 2.2235-4.191 2.5226-6e-3 0.47768 3.2536 2.2242 3.8332 2.054 0.29104-0.0854 1.2733-0.62503 2.1828-1.1991zm9.8001 0.34045c0.53991-0.28344 1.497-0.86399 2.1269-1.2901l1.1452-0.77478-0.74837-0.52742c-0.41161-0.29008-1.2717-0.79233-1.9113-1.1161-0.9814-0.49681-1.2704-0.54012-1.8521-0.27753-1.0698 0.48295-3.4673 2.1226-3.4673 2.3712 0 0.22568 2.1804 1.6834 2.9104 1.9457 0.64452 0.23162 0.76833 0.20881 1.7965-0.33094zm-26.102-2.8297c1.1441-0.6756 2.0802-1.2656 2.0802-1.3111 0-0.0455-0.83205-0.57706-1.849-1.1812l-1.849-1.0985-0.99527 0.53086c-2.5881 1.3805-3.24 1.7966-3.242 2.0695-3e-3 0.40902 2.7275 2.1744 3.4077 2.2032 0.20197 9e-3 1.3033-0.5372 2.4474-1.2128zm10.818-0.26257c1.1608-0.67448 2.1098-1.3591 2.1089-1.5214-2e-3 -0.285-0.66766-0.73114-2.6687-1.7876l-0.95059-0.50186-2.0921 1.1567c-1.1507 0.6362-2.0921 1.3213-2.0921 1.5224s0.51763 0.63674 1.1503 0.96803 1.4033 0.77956 1.7125 0.99615c0.30923 0.21659 0.59801 0.3938 0.64173 0.3938 0.0437 0 1.0293-0.55186 2.1901-1.2263zm11.447-0.67577c0.98773-0.59456 1.7561-1.2003 1.7075-1.3462-0.0486-0.14582-0.87094-0.69264-1.8274-1.2152l-1.739-0.95003-1.4237 0.76403c-2.0173 1.0826-2.9196 1.7492-2.8105 2.0764 0.1561 0.46829 3.4272 2.0787 3.8782 1.9093 0.23049-0.0866 1.2272-0.64386 2.2149-1.2384zm-27.963-1.7411c0.56754-0.40303 1.3687-0.88099 1.7803-1.0621 0.41162-0.18114 0.70374-0.4633 0.64916-0.62703-0.0546-0.16373-0.87946-0.72393-1.8331-1.2449l-1.7339-0.94721-1.6934 0.88938c-2.2757 1.1952-2.7366 1.6049-2.297 2.0417 0.62945 0.62546 2.7154 1.6435 3.4081 1.6633 0.37835 0.0108 1.1522-0.3101 1.7198-0.71313zm11.002-0.37285c0.77365-0.46258 1.6745-1.0011 2.002-1.1967s0.59531-0.44755 0.59531-0.55984c0-0.30542-3.1314-1.9003-3.731-1.9003-0.58598 0-2.6825 1.04-3.6643 1.8177-0.55917 0.44294-0.59924 0.57288-0.29114 0.94411 0.38146 0.45964 2.847 1.7278 3.3694 1.733 0.17224 2e-3 0.94614-0.37535 1.7198-0.83793zm11.643-0.7768c0.99101-0.59878 1.8018-1.186 1.8018-1.3049 0-0.41214-2.9908-2.1043-3.7192-2.1043-0.46847 0-4.2011 2.241-4.2098 2.5275-0.0105 0.34483 3.1088 1.9502 3.8121 1.9619 0.28229 5e-3 1.3241-0.48139 2.3151-1.0802zm-16.326-2.5214c0.72566-0.48828 1.4571-0.88779 1.6253-0.88779s0.37168-0.17126 0.452-0.38059c0.10046-0.2618-0.38906-0.67472-1.5683-1.3229-0.94289-0.51827-1.8787-0.94232-2.0796-0.94232-0.55287 0-4.2467 2.2499-4.2467 2.5866 0 0.47935 3.3684 2.1698 3.9688 1.9917 0.29104-0.0863 1.1229-0.55648 1.8486-1.0448zm9.7775 0.46038c0.0813-0.13163 0.79293-0.60335 1.5813-1.0483 0.78836-0.44492 1.5053-0.92532 1.5932-1.0676 0.17141-0.27736-2.8476-2.1642-3.5381-2.2112-0.47307-0.0322-4.251 2.1629-4.251 2.47 0 0.11096 0.68461 0.62486 1.5214 1.142 1.4683 0.90742 2.7861 1.2121 3.0932 0.71507zm-5.2189-3.1268c0.55064-0.25066 1.4774-0.80941 2.0595-1.2417 0.58208-0.43225 1.1092-0.8237 1.1713-0.86989 0.18284-0.13593-0.80384-0.79082-2.3116-1.5343l-1.4049-0.69271-2.1009 1.2317c-1.1555 0.67741-2.1009 1.3099-2.1009 1.4056 0 0.23573 2.9607 2.119 3.3645 2.1402 0.17697 9e-3 0.77228-0.18825 1.3229-0.43892z" fill="#586391"/>
   <path d="m258.73-520.1c-0.58208-0.33649-3.38-1.9556-6.2177-3.5979-2.8377-1.6424-8.3145-4.8051-12.171-7.0283-3.8563-2.2232-8.0138-4.6218-9.2389-5.3303-1.2251-0.70847-2.272-1.4215-2.3263-1.5845-0.15734-0.47203 0.75014-0.68023 1.0817-0.24816 0.34073 0.44408 3.276 2.1324 4.1857 2.4076 0.33511 0.10136 0.90694 0.46083 1.2707 0.79882 0.65469 0.60826 3.7055 2.2364 4.1905 2.2364 0.13829 0 0.60614 0.32742 1.0397 0.7276 0.43353 0.40019 1.607 1.1354 2.6077 1.6337 1.0007 0.49837 2.1879 1.183 2.6382 1.5214s0.895 0.61523 0.98821 0.61523c0.0932 0 0.74999 0.35718 1.4595 0.79375 0.7095 0.43656 1.4793 0.79375 1.7106 0.79375s0.52027 0.17809 0.64209 0.39575c0.12181 0.21767 1.2886 0.94308 2.5928 1.612s2.55 1.3621 2.7682 1.5403c0.79257 0.64703 3.7521 2.2728 4.1373 2.2728 0.36697 0 4.8279-2.5044 5.1231-2.8761 0.0728-0.0916 0.95133-0.58333 1.9524-1.0926s2.4298-1.3268 3.175-1.8167 2.2751-1.3668 3.3997-1.9487 2.3591-1.3494 2.7432-1.7054c0.70212-0.6507 1.4297-0.66252 1.4297-0.0232 0 0.18891-2.8688 2.0084-6.3752 4.0432-3.5063 2.0348-7.4525 4.3248-8.7693 5.0888-1.3168 0.76399-2.5259 1.3876-2.6868 1.3859-0.16096-2e-3 -0.76891-0.2785-1.351-0.61499zm-71.665-5.5456c-0.0858-0.34197-0.46261-1.0735-0.83729-1.6256-0.37469-0.55213-0.6456-1.028-0.60202-1.0576 1.297-0.87945 12.741-7.2926 13.013-7.2926 0.60951 0 1.4861 1.3088 1.4858 2.2185-2.3e-4 0.71968-0.17642 0.92219-1.3891 1.5966-2.5665 1.4274-10.911 6.293-11.214 6.539-0.20361 0.1651-0.35049 0.0433-0.45631-0.3783zm73.12-0.97996c0-0.14552 0.23812-0.26458 0.52916-0.26458 0.29105 0 0.52917 0.11906 0.52917 0.26458s-0.23812 0.26459-0.52917 0.26459c-0.29104 0-0.52916-0.11907-0.52916-0.26459zm-5.0271-2.9104c0.51297-0.33151 0.79375-0.33151 0.79375 0 0 0.14552-0.26789 0.26276-0.59531 0.26053-0.48139-3e-3 -0.51936-0.0531-0.19844-0.26053zm11.529-0.25382c-0.48441-0.17371-0.48582-0.19202-0.0283-0.3676 0.52573-0.20174 0.77852-0.0798 0.6318 0.3048-0.0515 0.1351-0.32312 0.16336-0.60353 0.0628zm-16.688-2.6566c-0.0931-0.15065 0.13475-0.26458 0.52917-0.26458 0.39441 0 0.62227 0.11393 0.52916 0.26458-0.0899 0.14552-0.32806 0.26458-0.52916 0.26458-0.20111 0-0.43923-0.11906-0.52917-0.26458zm10.716-0.52917c0-0.14552 0.23813-0.26458 0.52917-0.26458s0.52917 0.11906 0.52917 0.26458-0.23813 0.26459-0.52917 0.26459-0.52917-0.11907-0.52917-0.26459zm-15.925-2.562c0.191-0.0764 0.41921-0.067 0.50712 0.0209 0.0879 0.0879-0.0683 0.15045-0.34726 0.13896-0.30823-0.0127-0.37092-0.0754-0.15986-0.15985zm-27.599-2.9859c0-2.5314-0.0243-2.6331-1.1653-4.8834-1.3261-2.6154-3.5148-4.8513-5.4855-5.6039-1.3914-0.53138-1.4582-0.81721-0.24415-1.045 3.2841-0.61609 7.662 3.9252 8.6601 8.9834 0.43663 2.2126-0.12365 4.2556-1.3466 4.9101-0.36851 0.19722-0.41863-0.0855-0.41863-2.3612zm38.96 2.4622c0.1819-0.0734 0.47956-0.0734 0.66146 0s0.0331 0.13345-0.33073 0.13345c-0.3638 0-0.51263-0.0601-0.33073-0.13345zm10.385-0.36956c0-0.1541 0.11906-0.20661 0.26458-0.11667 0.14552 0.0899 0.26458 0.21603 0.26458 0.2802 0 0.0642-0.11906 0.11667-0.26458 0.11667s-0.26458-0.12609-0.26458-0.2802zm-26.988-2.101c0-0.14552 0.2311-0.26458 0.51355-0.26458s0.58714 0.11906 0.67707 0.26458c0.0927 0.15006-0.12954 0.26459-0.51355 0.26459-0.37239 0-0.67707-0.11907-0.67707-0.26459zm-29.575-0.60228c-0.14255-0.17807-0.52424-0.84958-0.8482-1.4922l-0.58901-1.1685 0.62314-0.47927c0.34273-0.26359 0.87028-0.48191 1.1723-0.48515 1.0272-0.011 2.3065 2.0154 1.7685 2.8015-0.11059 0.1616-0.57605 0.48588-1.0344 0.72064-0.64912 0.33249-0.89057 0.35527-1.0925 0.10306zm21.779-0.97047c-0.0849-0.13741-1.2292-0.87013-2.5428-1.6283-2.1291-1.2288-2.3797-1.4527-2.3086-2.063 0.0462-0.39663 0.27209-0.72105 0.53696-0.77127 0.40407-0.0766 4.7946 2.2253 6.1686 3.2342 0.50321 0.36948 0.49798 0.38793-0.18394 0.64833-0.38605 0.14742-0.78003 0.39444-0.87551 0.54893-0.21511 0.34805-0.58977 0.36269-0.79473 0.0311zm13.617-1.8668c0-0.14552 0.2311-0.26458 0.51355-0.26458 0.28246 0 0.58714 0.11906 0.67708 0.26458 0.0927 0.15006-0.12955 0.26458-0.51355 0.26458-0.3724 0-0.67708-0.11906-0.67708-0.26458zm-4.3045-3.4184c-0.0643-0.24584-1.1759-1.0484-2.4703-1.7836-2.5004-1.42-3.0327-2.1595-1.9656-2.7306 0.44504-0.23818 0.75196-0.18323 1.582 0.28327 1.3235 0.74385 1.7599 0.55297 1.9718-0.86242 0.60964-4.0724-2.9004-10.147-6.7848-11.742-0.69068-0.28364-1.2562-0.5996-1.2568-0.70215-5.3e-4 -0.10255 0.40864-0.2633 0.9093-0.35722 2.1815-0.40925 5.1353 1.5218 6.9022 4.5124 2.2586 3.8227 2.4723 7.2429 0.58225 9.3188-0.66534 0.73079-0.41535 1.0986 1.4289 2.1024 0.70885 0.38581 1.2888 0.78046 1.2888 0.87701 0 0.0965-0.46595 0.4806-1.0354 0.85346-0.91453 0.59876-1.0491 0.62573-1.1524 0.23096zm10.125 0.24344c0-0.14552 0.11907-0.26458 0.26459-0.26458s0.26458 0.11906 0.26458 0.26458-0.11906 0.26458-0.26458 0.26458-0.26459-0.11906-0.26459-0.26458zm-41.9-8.1375-2.0798-1.229-2.8001 1.5147-2.0764-1.1919c-2.0852-1.1969-5.4434-3.138-13.057-7.5467-2.2556-1.3062-6.5556-3.793-9.5557-5.5261-6.7135-3.8785-6.8016-3.9379-6.4218-4.3333 0.22181-0.23084 0.52924-0.15547 1.2461 0.3055 2.6439 1.7002 3.4022 2.1084 4.0439 2.1768 0.38473 0.041 0.80809 0.26859 0.94079 0.50571 0.2895 0.51732 3.7152 2.5597 4.2934 2.5597 0.22416 0 0.52829 0.2256 0.67586 0.50133 0.14757 0.27574 0.59837 0.6164 1.0018 0.75703 0.4034 0.14063 1.1964 0.56987 1.7623 0.95387 0.56586 0.384 1.3136 0.69818 1.6617 0.69818 0.34806 0 0.69839 0.17083 0.77851 0.37962 0.18073 0.47098 3.4122 2.4342 4.4052 2.6762 0.40204 0.098 0.8197 0.33672 0.92812 0.53047 0.2614 0.46708 3.9748 2.4991 4.5669 2.4991 0.25532 0 0.52907 0.16901 0.60834 0.37558 0.15747 0.41035 3.6445 2.5348 4.1606 2.5348 0.49675 0 5.0374-2.6678 5.1819-3.0446 0.0708-0.18459 0.4486-0.40248 0.83948-0.48421 0.92139-0.19266 4.8164-2.5255 4.9954-2.9919 0.0756-0.19716 0.39271-0.36045 0.70457-0.36288 0.56603-4e-3 4.1274-1.9626 4.9928-2.7453 0.47901-0.43322 1.3526-0.29795 1.1918 0.18453-0.0514 0.15405-0.80052 0.70785-1.6648 1.2307-0.86431 0.52283-1.5715 1.1115-1.5715 1.3081 0 0.19665 0.7641 0.78938 1.698 1.3172 0.9339 0.52781 1.742 1.0916 1.7957 1.2528 0.0537 0.16121-0.21513 0.49808-0.59749 0.7486-0.68493 0.44879-0.72592 0.43764-2.7818-0.75691-1.1476-0.66683-2.3206-1.2124-2.6066-1.2124-0.70967 0-6.7492 3.5572-6.8456 4.032-0.079 0.38906 1.4814 1.569 2.5043 1.8936 1.0177 0.32301 1.2453 0.85317 0.56947 1.3266-0.86338 0.60474-1.1741 0.53014-3.4887-0.83762zm-4.7994-6.9438c0.0899-0.14552 0.32806-0.26458 0.52916-0.26458 0.20111 0 0.43923 0.11906 0.52917 0.26458 0.0931 0.15065-0.13475 0.26458-0.52917 0.26458-0.39441 0-0.62227-0.11393-0.52916-0.26458zm-4.8948-2.9104c0-0.14552 0.1786-0.26458 0.39688-0.26458s0.39687 0.11906 0.39687 0.26458-0.17859 0.26459-0.39687 0.26459-0.39688-0.11907-0.39688-0.26459zm10.848-0.52916c0-0.14552 0.29766-0.26459 0.66146-0.26459s0.66146 0.11907 0.66146 0.26459-0.29766 0.26458-0.66146 0.26458-0.66146-0.11906-0.66146-0.26458zm-20.952-5.4724c0.19099-0.0764 0.4192-0.067 0.50712 0.0209 0.0879 0.0879-0.0684 0.15045-0.34727 0.13896-0.30822-0.0127-0.37092-0.0754-0.15985-0.15985zm10.633-0.32012c0-0.23632 0.62216-0.55747 1.08-0.55747 0.13361 0 0.24294 0.17859 0.24294 0.39687 0 0.24695-0.24988 0.39688-0.66146 0.39688-0.3638 0-0.66146-0.10633-0.66146-0.23628zm-16.272-2.6741c-0.0954-0.15436 0.17364-0.26458 0.64584-0.26458 0.44515 0 0.80936 0.11906 0.80936 0.26458s-0.29062 0.26458-0.64584 0.26458c-0.35521 0-0.71943-0.11906-0.80936-0.26458zm6.35-3.4396c0.0899-0.14552 0.27555-0.26459 0.41249-0.26459 0.13693 0 0.24896 0.11907 0.24896 0.26459s-0.18562 0.26458-0.41249 0.26458-0.3389-0.11906-0.24896-0.26458zm5.3744-3.3557c0.19099-0.0764 0.41919-0.067 0.50711 0.0209 0.0879 0.0879-0.0684 0.15046-0.34726 0.13897-0.30823-0.0127-0.37092-0.0754-0.15985-0.15985z" fill="#5a5d6b"/>
  </g>
 </g>
</svg>
